<svg xmlns="http://www.w3.org/2000/svg" xmlns:xlink="http://www.w3.org/1999/xlink" version="1.1" x="0px" y="0px" viewBox="0 0 100 125" style="enable-background:new 0 0 100 100;" xml:space="preserve"><g><path d="M85.7,14.3c-2.3-2.3-6.1-2.3-8.5,0L50,41.5L22.7,14.3c-2.3-2.3-6.1-2.3-8.5,0c-2.3,2.3-2.3,6.1,0,8.5L41.5,50L14.3,77.3   c-2.3,2.3-2.3,6.1,0,8.5c1.2,1.2,2.7,1.8,4.2,1.8s3.1-0.6,4.2-1.8L50,58.5l27.3,27.3c1.2,1.2,2.7,1.8,4.2,1.8s3.1-0.6,4.2-1.8   c2.3-2.3,2.3-6.1,0-8.5L58.5,50l27.3-27.3C88.1,20.4,88.1,16.6,85.7,14.3z"/></g><text x="0" y="115" fill="#000000" font-size="5px" font-weight="bold" font-family="'Helvetica Neue', Helvetica, Arial-Unicode, Arial, Sans-serif">Created by Viktor Vorobyev</text><text x="0" y="120" fill="#000000" font-size="5px" font-weight="bold" font-family="'Helvetica Neue', Helvetica, Arial-Unicode, Arial, Sans-serif">from the Noun Project</text></svg>