<svg xmlns="http://www.w3.org/2000/svg" xmlns:xlink="http://www.w3.org/1999/xlink" version="1.1" x="0px" y="0px" viewBox="0 0 54 55" enable-background="new 0 0 54 44" xml:space="preserve"><g><g><path fill="#000000" d="M4,8h46c2.209,0,4-1.792,4-4c0-2.211-1.789-4-3.998-4H4C1.792,0,0,1.789,0,4C0,6.208,1.792,8,4,8z     M50,17.999H4c-2.209,0-4,1.791-4,4.001c0,2.209,1.792,4,4,4h46c2.209,0,4-1.791,4-4C54,19.79,52.209,17.999,50,17.999z     M50,35.999H4c-2.209,0-4,1.791-4,4.002c0,2.209,1.792,4,4,4h46c2.209,0,4-1.791,4-4C54,37.79,52.209,35.999,50,35.999z"/></g></g><text x="0" y="59" fill="#000000" font-size="5px" font-weight="bold" font-family="'Helvetica Neue', Helvetica, Arial-Unicode, Arial, Sans-serif">Created by Star and Anchor Design</text><text x="0" y="64" fill="#000000" font-size="5px" font-weight="bold" font-family="'Helvetica Neue', Helvetica, Arial-Unicode, Arial, Sans-serif">from the Noun Project</text></svg>