<svg xmlns="http://www.w3.org/2000/svg" xmlns:xlink="http://www.w3.org/1999/xlink" version="1.1" x="0px" y="0px" viewBox="0 0 59 73.75" enable-background="new 0 0 59 59" xml:space="preserve"><g><g><path d="M29.5,0C13.208,0,0,13.208,0,29.5C0,45.792,13.208,59,29.5,59C45.792,59,59,45.792,59,29.5C59,13.208,45.792,0,29.5,0z     M43.039,21.676l-16.5,16.499c-0.373,0.373-0.888,0.587-1.415,0.587c-0.527,0-1.042-0.214-1.415-0.587l-8.499-8.499    c-0.781-0.782-0.783-2.048,0-2.829c0.78-0.78,2.047-0.78,2.827,0l7.086,7.086l15.084-15.084c0.781-0.783,2.048-0.783,2.83,0    C43.819,19.629,43.819,20.896,43.039,21.676z"/></g></g><text x="0" y="74" fill="#000000" font-size="5px" font-weight="bold" font-family="'Helvetica Neue', Helvetica, Arial-Unicode, Arial, Sans-serif">Created by BenPixels</text><text x="0" y="79" fill="#000000" font-size="5px" font-weight="bold" font-family="'Helvetica Neue', Helvetica, Arial-Unicode, Arial, Sans-serif">from the Noun Project</text></svg>