<svg xmlns="http://www.w3.org/2000/svg" width="416.542" height="158.646" viewBox="0 0 416.542 158.646"><path fill="#FF313F" d="M83.57 90.966a85.384 85.384 0 0 1-5.751 1.398 78.756 78.756 0 0 1 2.122 6.682 40.953 40.953 0 0 1 1.437 10.705c0 .501-.029 1.173-.17 2.827a79.852 79.852 0 0 1-.53 4.456 86.701 86.701 0 0 1-1.059 5.87c-.185.852-.408 2.638-.633 2.638H99.38c5.026 0 9.036-4.208 9.036-9.232V81.301l-15.398 5.82a44.76 44.76 0 0 1-9.448 3.845zm-51.274 6.842c.141-1.896.313-3.975.514-6.219a84.4 84.4 0 0 1-2.363-.624c-3.281-.911-6.35-2.206-9.357-3.845L4.414 81.539v34.771c0 5.024 3.833 9.232 8.858 9.232h19.481c-.406-3-.711-5.003-.885-7.529a113.77 113.77 0 0 1-.273-7.721c0-.209.045-1.492.148-3.816.098-2.181.277-5.027.553-8.668zm3.78-32.876a405.433 405.433 0 0 1 1.777-10.27 207.578 207.578 0 0 1 3.695-16.283c1.445-5.344 3.125-10.739 4.99-15.48.28-.71.58-1.356.871-2.356H13.272c-5.025 0-8.858 4.634-8.858 9.659v16.654l4.292 2.73c0 .001 26.367 14.941 27.37 15.346zm63.302-44.39h-3.492c-.209 3-.521 3.472-.94 5.206a84.916 84.916 0 0 1-3.245 10.361 144.76 144.76 0 0 1-4.722 10.894 173.227 173.227 0 0 1-5.889 11.13 216.498 216.498 0 0 1-4.361 7.242c1.499-.538 2.749-1.092 3.797-1.678 1.633-.885 24.887-10.532 27.887-12.287V30.202c.001-5.025-4.009-9.66-9.035-9.66z"/><path fill="#535353" d="M77.247 73.674C74.389 74.558 71.098 75 67.375 75c-.377 0-.698-.047-.959-.141a8.927 8.927 0 0 1-.762-.312 7.019 7.019 0 0 0-.818-.31c-.302-.094-.697-.141-1.185-.141-.415 0-.81.057-1.184.169-.376.112-.94.357-1.693.732l.113-.901a140.29 140.29 0 0 0 6.854-9.562 211.634 211.634 0 0 0 6.403-10.38 164.214 164.214 0 0 0 5.613-10.578 134.845 134.845 0 0 0 4.457-10.21c1.26-3.271 2.236-6.347 2.934-9.224.256-1.063.45-2.066.612-3.039.275-1.661.431-3.206.431-4.605 0-2.444-.387-4.504-1.157-6.178-.771-1.673-1.741-3.019-2.905-4.034a10.902 10.902 0 0 0-3.864-2.2c-1.41-.451-2.756-.677-4.034-.677-3.236 0-6.206.979-8.914 2.934-2.708 1.956-5.162 4.617-7.362 7.983-1.335 2.042-2.581 4.319-3.756 6.777a76.341 76.341 0 0 0-2.195 5.013c-1.77 4.494-3.338 9.281-4.711 14.357a198.329 198.329 0 0 0-3.554 15.654 387.225 387.225 0 0 0-2.595 15.684c-.146 1.009-.281 2-.415 2.987-2.152-.206-4.151-.566-5.958-1.126-2.858-.883-5.346-1.869-7.301-2.961-1.574-.851-16.46-8.558-25.057-13.852v13.967c9.824 4.585 26.162 11.869 28.103 12.408 2.708.754 5.249 1.316 7.543 1.691.467.071.949.114 1.415.178-.041.4-.078.809-.117 1.205a514.44 514.44 0 0 0-1.067 12.101c-.263 3.498-.441 6.3-.534 8.406-.094 2.105-.14 3.252-.14 3.44 0 2.293.085 4.673.255 7.138.169 2.461.46 4.878.874 7.248.047.262.114.505.163.764.401 2.084.905 4.086 1.559 5.979.733 2.123 1.644 3.984 2.736 5.585 1.091 1.599 2.406 2.868 3.949 3.809 1.542.938 3.347 1.411 5.416 1.411 2.067 0 3.921-.435 5.557-1.298a15.554 15.554 0 0 0 4.344-3.413c1.261-1.41 2.36-3.028 3.301-4.854a41.044 41.044 0 0 0 2.398-5.669c.174-.52.317-1.032.474-1.55.436-1.43.828-2.853 1.133-4.261a76.308 76.308 0 0 0 1.438-9.252c.092-1.094.141-1.807.141-2.145 0-2.896-.387-5.763-1.157-8.604-.771-2.839-1.628-5.406-2.566-7.7a77.056 77.056 0 0 0-3.667-7.729 71.405 71.405 0 0 0 7.954-.789c2.292-.375 4.795-.938 7.503-1.691 2.708-.753 44.172-16.132 40.16-15.865 0 0 1.32-11.659 4.278-12.303 6.15-1.337-39.1 14.402-41.392 15.644-1.955 1.094-4.363 2.081-7.22 2.964zM59.082 55.34c.261-2.426.713-5.236 1.354-8.434.64-3.196 1.58-6.854 2.821-10.973 1.241-4.118 2.952-8.886 5.134-14.302.074-.188.15-.35.225-.527.659-1.57 1.39-2.79 2.2-3.618.903-.921 2.219-1.382 3.949-1.382.978 0 1.749.46 2.313 1.382.487.798.75 2.021.818 3.618.011.25.028.484.028.754 0 1.43-.593 3.518-1.777 6.262-1.185 2.746-2.717 5.915-4.598 9.506a534.569 534.569 0 0 1-6.319 11.677 718.633 718.633 0 0 0-6.938 12.778c.262-2.068.526-4.316.79-6.741zm2.284 62.112c-.133 2.123-.395 4.08-.79 5.867a16.644 16.644 0 0 1-.61 2.089c-.319.879-.695 1.667-1.139 2.339-.771 1.165-1.797 1.75-3.074 1.75-.416 0-.818-.255-1.213-.762-.395-.509-.753-1.608-1.071-3.301l-.005-.026c-.317-1.693-.58-4.163-.785-7.421-.207-3.271-.311-7.672-.311-13.2 0-.789.036-1.87.113-3.244.076-1.372.17-2.855.282-4.456.113-1.599.244-3.224.395-4.88.149-1.654.311-3.148.479-4.484.169-1.333.347-2.426.536-3.271.188-.847.357-1.27.508-1.27.451 0 .938.508 1.467 1.522.526 1.015 1.043 2.341 1.551 3.978a75.844 75.844 0 0 1 1.467 5.557c.47 2.069.882 4.146 1.241 6.234.356 2.087.639 4.09.846 6.008.205 1.919.31 3.534.31 4.852 0 1.952-.064 3.994-.197 6.119z"/><g fill="#535353"><path d="M115.698 91.564c0-1.655.094-3.582.282-5.782a156.3 156.3 0 0 1 .762-6.967c.32-2.445.696-4.937 1.128-7.476.432-2.538.894-4.955 1.382-7.249.489-2.293.978-4.399 1.467-6.317.489-1.918.978-3.498 1.466-4.739.301-.827.602-1.485.903-1.975.3-.488.649-.875 1.043-1.156.395-.282.884-.47 1.466-.564.583-.093 1.308-.141 2.172-.141.978 0 1.74.047 2.285.141.546.095.95.32 1.213.678.263.357.423.874.479 1.551.057.677.084 1.599.084 2.764v5.049c0 1.976.038 3.921.113 5.839h.621c.752-1.503 1.599-3.187 2.539-5.049a33.058 33.058 0 0 1 3.271-5.218 19.388 19.388 0 0 1 4.231-4.09c1.58-1.109 3.404-1.664 5.473-1.664.714 0 1.41.122 2.087.366a5.4 5.4 0 0 1 1.777 1.044 4.947 4.947 0 0 1 1.212 1.664c.301.658.452 1.401.452 2.228 0 .642-.094 1.533-.282 2.681a242.06 242.06 0 0 1-.621 3.609c-.226 1.26-.433 2.482-.621 3.667-.188 1.186-.282 2.172-.282 2.962 0 1.354.132 2.482.395 3.386.263.902.611 1.627 1.043 2.172.433.546.921.931 1.467 1.156.545.227 1.118.34 1.72.34 1.692 0 3.441-.375 5.246-1.129a34.12 34.12 0 0 0 4.964-2.538 47.264 47.264 0 0 0 5.19-3.724l-.846 13.201a309.4 309.4 0 0 1-3.329 2.144 42.446 42.446 0 0 1-3.978 2.229 29.73 29.73 0 0 1-4.4 1.749 15.63 15.63 0 0 1-4.654.705c-2.82 0-5.096-.571-6.826-1.721-1.73-1.146-3.103-2.651-4.118-4.514-1.016-1.861-1.768-3.949-2.256-6.262a86.908 86.908 0 0 1-1.185-7.024h-.902l-10.099 28.15c-.526 1.467-1.024 2.68-1.495 3.638-.47.96-.949 1.741-1.438 2.344-.489.601-1.015 1.022-1.58 1.269a4.608 4.608 0 0 1-1.862.367c-1.542 0-2.783-.33-3.723-.987s-1.664-1.542-2.172-2.651c-.508-1.107-.846-2.369-1.016-3.779a37.971 37.971 0 0 1-.248-4.377z"/><path d="M183.507 103.355c-3.535 0-6.628-.641-9.28-1.919-2.651-1.276-4.86-2.997-6.628-5.162-1.768-2.162-3.093-4.661-3.977-7.503-.884-2.84-1.326-5.817-1.326-8.941 0-2.105.207-4.334.621-6.685s1.044-4.654 1.89-6.911a36.223 36.223 0 0 1 3.187-6.459 25.688 25.688 0 0 1 4.485-5.416 20.709 20.709 0 0 1 5.754-3.724c2.125-.922 4.484-1.382 7.08-1.382 2.106 0 4.062.338 5.867 1.016 1.805.677 3.375 1.627 4.71 2.849 1.335 1.223 2.379 2.7 3.131 4.428.752 1.73 1.128 3.667 1.128 5.812 0 2.333-.573 4.664-1.72 6.996-1.147 2.333-2.736 4.532-4.767 6.6-2.031 2.069-4.448 3.912-7.249 5.528-2.802 1.617-5.839 2.877-9.111 3.778.563 1.018 1.118 1.862 1.664 2.539.545.678 1.1 1.206 1.664 1.58a5.473 5.473 0 0 0 1.777.789c.621.15 1.288.228 2.003.228 2.256 0 4.635-.452 7.136-1.354a46.322 46.322 0 0 0 7.306-3.385c2.37-1.354 4.607-2.828 6.713-4.428s3.892-3.112 5.358-4.542l7.279 7.56c-3.311 3.422-6.826 6.451-10.55 9.083a78.378 78.378 0 0 1-5.219 3.328 46.722 46.722 0 0 1-5.867 2.904 40.662 40.662 0 0 1-6.375 2.031 29.657 29.657 0 0 1-6.684.762zm-7.503-26.515c1.354 0 2.83-.347 4.428-1.044a19.86 19.86 0 0 0 4.457-2.679c1.374-1.091 2.529-2.276 3.47-3.554.94-1.278 1.41-2.52 1.41-3.725 0-1.691-.31-3.083-.931-4.175-.621-1.091-1.382-1.636-2.285-1.636-1.617 0-2.999.302-4.146.902a9.002 9.002 0 0 0-2.877 2.342 12.141 12.141 0 0 0-1.862 3.271 22.315 22.315 0 0 0-1.072 3.695 27.918 27.918 0 0 0-.479 3.611 47.793 47.793 0 0 0-.113 2.992z"/><path d="M227.905 103.355c-3.534 0-6.629-.641-9.28-1.919-2.65-1.276-4.859-2.997-6.629-5.162-1.768-2.162-3.093-4.661-3.977-7.503-.884-2.84-1.326-5.817-1.326-8.941 0-2.105.207-4.334.621-6.685s1.044-4.654 1.891-6.911c.846-2.256 1.908-4.409 3.187-6.459s2.774-3.855 4.485-5.416a20.709 20.709 0 0 1 5.754-3.724c2.125-.922 4.484-1.382 7.08-1.382 2.105 0 4.062.338 5.867 1.016 1.805.677 3.375 1.627 4.711 2.849 1.334 1.223 2.379 2.7 3.131 4.428.752 1.73 1.127 3.667 1.127 5.812 0 2.333-.572 4.664-1.719 6.996-1.147 2.333-2.736 4.532-4.769 6.6-2.031 2.069-4.447 3.912-7.249 5.528-2.803 1.617-5.839 2.877-9.109 3.778.562 1.018 1.117 1.862 1.663 2.539.546.678 1.101 1.206 1.663 1.58a5.473 5.473 0 0 0 1.777.789c.621.15 1.287.228 2.003.228 2.257 0 4.636-.452 7.137-1.354 2.501-.901 4.937-2.03 7.306-3.385s4.607-2.828 6.713-4.428 3.894-3.112 5.359-4.542l7.277 7.56c-3.311 3.422-6.826 6.451-10.549 9.083a78.378 78.378 0 0 1-5.219 3.328 46.722 46.722 0 0 1-5.867 2.904 40.73 40.73 0 0 1-6.375 2.031 29.65 29.65 0 0 1-6.684.762zm-7.503-26.515c1.354 0 2.83-.347 4.428-1.044a19.895 19.895 0 0 0 4.459-2.679c1.371-1.091 2.527-2.276 3.469-3.554.94-1.278 1.41-2.52 1.41-3.725 0-1.691-.312-3.083-.932-4.175-.621-1.091-1.382-1.636-2.285-1.636-1.617 0-2.998.302-4.146.902a9.035 9.035 0 0 0-2.877 2.342 12.112 12.112 0 0 0-1.861 3.271 22.119 22.119 0 0 0-1.071 3.695 28.093 28.093 0 0 0-.479 3.611 46.472 46.472 0 0 0-.115 2.992z"/><path d="M253.234 91.564c0-2.482.15-5.351.452-8.604.301-3.252.677-6.562 1.128-9.928s.959-6.609 1.523-9.731c.563-3.121 1.108-5.792 1.636-8.011.414-1.729 1.213-3.178 2.397-4.344 1.186-1.165 2.791-1.749 4.823-1.749 2.03 0 3.44.621 4.229 1.861s1.187 2.896 1.187 4.964c0 .563-.057 1.326-.171 2.285-.111.959-.253 2.012-.422 3.158-.169 1.148-.348 2.333-.536 3.555s-.366 2.351-.536 3.385c-.169 1.035-.311 1.938-.423 2.708s-.17 1.289-.17 1.551h1.129c.226-.414.583-1.081 1.071-2.002s1.054-1.982 1.693-3.188a288.018 288.018 0 0 1 2.059-3.809c.732-1.334 1.42-2.614 2.06-3.836a136.913 136.913 0 0 1 2.935-5.331c1.203-2.031 2.576-3.421 4.117-4.174 1.541-.752 3.252-1.128 5.133-1.128s3.377.79 4.486 2.369c1.108 1.579 1.663 3.761 1.663 6.544 0 .414-.085 1.11-.254 2.087-.169.979-.385 2.144-.647 3.498-.264 1.354-.556 2.84-.875 4.457s-.611 3.271-.875 4.964c-.264 1.692-.479 3.366-.647 5.021s-.255 3.179-.255 4.568c0 2.334.292 4.252.875 5.754.583 1.505 1.494 2.258 2.736 2.258.562 0 1.213-.17 1.945-.508a19.55 19.55 0 0 0 2.369-1.326 29.525 29.525 0 0 0 2.596-1.891 92.51 92.51 0 0 0 2.623-2.199 128.039 128.039 0 0 0 6.262-5.979l.959 12.636-2.82 2.146a331.761 331.761 0 0 1-4.71 3.496 42.029 42.029 0 0 1-4.992 3.132 30.773 30.773 0 0 1-5.416 2.257 19.856 19.856 0 0 1-5.924.875c-2.067 0-3.808-1.496-5.218-4.485-1.41-2.99-2.115-7.362-2.115-13.116 0-2.257.148-4.69.451-7.306.301-2.614.676-5.424 1.128-8.434h-.902l-14.78 29.335c-.752 1.543-1.599 2.595-2.539 3.158-.939.564-2.03.848-3.271.848-1.541 0-2.783-.33-3.725-.987-.938-.657-1.663-1.542-2.172-2.651-.506-1.107-.846-2.369-1.015-3.779s-.255-2.869-.255-4.374z"/><path d="M303.726 81.692a230.19 230.19 0 0 0 5.135-4.515 66.15 66.15 0 0 0 3.385-3.3 36.905 36.905 0 0 0 2.564-3.019c.771-1.017 1.686-2.219 2.736-3.611 1.053-1.39 2.332-3.093 3.838-5.104 1.504-2.012 3.459-4.522 5.865-7.532a19.977 19.977 0 0 1 1.637-1.974 12.647 12.647 0 0 1 2.002-1.722 10.539 10.539 0 0 1 2.428-1.241c.885-.318 1.869-.479 2.961-.479 1.807 0 3.197.197 4.176.592.979.396 1.689.875 2.143 1.439.451.563.715 1.155.789 1.776.076.621.113 1.157.113 1.607 0 .903-.357 1.899-1.07 2.991a31.592 31.592 0 0 1-2.369 3.158 110.43 110.43 0 0 1-2.455 2.792c-.77.847-1.213 1.478-1.324 1.891 0 1.166.084 2.228.254 3.187.168.959.395 1.9.676 2.821.283.922.574 1.899.875 2.934.301 1.035.592 2.229.875 3.583.281 1.354.508 2.915.676 4.683.17 1.77.254 3.856.254 6.263a33.81 33.81 0 0 1 4.373-2.454c1.562-.732 3.188-1.495 4.879-2.285 1.693-.79 3.434-1.664 5.221-2.623a42.513 42.513 0 0 0 5.387-3.469l.057 12.637c-2.332 1.806-5.029 3.497-8.096 5.077a79.044 79.044 0 0 1-9.646 4.174 73.732 73.732 0 0 1-10.211 2.851c-3.441.695-6.703 1.043-9.787 1.043-2.221 0-4.287-.206-6.205-.62-1.92-.414-3.602-1.062-5.051-1.946a10.672 10.672 0 0 1-3.523-3.47c-.904-1.43-1.449-3.159-1.639-5.19-.525.113-1.043.19-1.55.228-.509.037-1.007.056-1.496.056-.601 0-1.165-.019-1.692-.056-.525-.036-.977-.178-1.354-.424-.375-.244-.678-.64-.902-1.186-.227-.543-.339-1.326-.339-2.341 0-.902.226-1.74.679-2.511a10.15 10.15 0 0 1 1.578-2.06 17.07 17.07 0 0 1 1.805-1.579 27.073 27.073 0 0 0 1.348-1.072zm7.221 7.221c.451 0 .949.281 1.494.846a61.485 61.485 0 0 0 1.891 1.862 14.21 14.21 0 0 0 2.48 1.861c.939.562 2.014.847 3.217.847 1.467 0 2.68-.245 3.639-.732.959-.488 1.721-1.138 2.285-1.946.562-.811.959-1.75 1.186-2.821.227-1.072.338-2.19.338-3.355a24.74 24.74 0 0 0-.197-3.104 33.834 33.834 0 0 0-.508-3.019 41.184 41.184 0 0 0-.676-2.708 143.2 143.2 0 0 0-.648-2.172l-14.501 14.441z"/><path d="M383.212 60.028c.303-1.278.836-2.417 1.607-3.413s1.654-1.833 2.65-2.51a11.694 11.694 0 0 1 3.133-1.523c1.09-.338 2.125-.507 3.104-.507 1.164 0 2.143.253 2.934.762.789.508 1.186 1.308 1.186 2.397 0 .339-.059.732-.17 1.185-.227.979-.508 2.313-.848 4.005a397.27 397.27 0 0 0-1.1 5.754c-.395 2.144-.799 4.41-1.213 6.798a493.467 493.467 0 0 0-1.186 7.137 1201.387 1201.387 0 0 0-2.877 17.938 41.777 41.777 0 0 0 3.666-2.368c1.316-.938 2.783-2.2 4.4-3.78 1.617-1.579 3.422-3.562 5.416-5.951 1.992-2.389 4.23-5.368 6.713-8.942l2.709 12.524c-.678 1.166-1.553 2.361-2.623 3.582a53.366 53.366 0 0 1-3.555 3.667 74.245 74.245 0 0 1-4.062 3.555 130.579 130.579 0 0 1-14.47 10.239 160.632 160.632 0 0 1-2.537 11.762c-.979 3.816-2.135 7.392-3.469 10.72-1.336 3.328-2.859 6.382-4.57 9.167-1.711 2.782-3.646 5.17-5.811 7.164a24.423 24.423 0 0 1-7.25 4.653c-2.67 1.108-5.623 1.665-8.857 1.665-1.277 0-2.66-.133-4.145-.395a11.483 11.483 0 0 1-4.119-1.579c-1.26-.791-2.305-1.919-3.131-3.386-.828-1.468-1.242-3.424-1.242-5.867 0-1.692.434-3.604 1.299-5.728s2.049-4.363 3.555-6.712c1.504-2.351 3.289-4.796 5.359-7.335a120.936 120.936 0 0 1 6.74-7.587 179.29 179.29 0 0 1 7.615-7.447 184.092 184.092 0 0 1 8.039-6.995l1.523-5.245c-2.031 1.805-4.146 3.264-6.348 4.37-2.199 1.109-4.334 1.665-6.402 1.665a13.25 13.25 0 0 1-5.275-1.1 13.738 13.738 0 0 1-4.541-3.159c-1.314-1.373-2.367-3.047-3.158-5.021-.789-1.976-1.186-4.202-1.186-6.686 0-3.271.16-6.28.48-9.026a64.643 64.643 0 0 1 1.383-7.842c.602-2.481 1.354-4.88 2.256-7.192s1.936-4.654 3.104-7.023c.865-1.692 2.105-2.98 3.723-3.865 1.619-.882 3.197-1.324 4.74-1.324 1.314 0 2.443.33 3.385.986.939.658 1.41 1.685 1.41 3.074 0 .414-.047.866-.143 1.354a8.759 8.759 0 0 1-.479 1.579c-.678 1.73-1.346 3.771-2.002 6.12-.66 2.352-1.242 4.76-1.75 7.222a94.506 94.506 0 0 0-1.213 7.25c-.303 2.369-.451 4.457-.451 6.262 0 .94.064 1.854.195 2.735.133.884.367 1.674.705 2.37.342.696.791 1.262 1.355 1.69.564.435 1.279.649 2.145.649 1.393 0 2.65-.602 3.779-1.806 1.127-1.203 2.107-2.651 2.934-4.345a31.188 31.188 0 0 0 2.004-5.246c.508-1.806.836-3.309.986-4.513l3.951-16.582zm-26.4 84.847c1.578 0 3.074-.46 4.484-1.382 1.41-.923 2.707-2.136 3.893-3.638 1.186-1.506 2.268-3.217 3.244-5.135a56.458 56.458 0 0 0 2.596-5.896 69.183 69.183 0 0 0 1.918-5.895c.525-1.92.939-3.632 1.24-5.135-1.467.979-2.961 2.146-4.484 3.498a65.578 65.578 0 0 0-4.457 4.371 77.008 77.008 0 0 0-4.119 4.824 62.492 62.492 0 0 0-3.412 4.767c-.979 1.523-1.748 2.942-2.312 4.26-.564 1.315-.848 2.404-.848 3.271-.001 1.392.751 2.09 2.257 2.09z"/></g></svg>