<?xml version="1.0" encoding="utf-8"?>
<!-- Generator: Adobe Illustrator 19.2.1, SVG Export Plug-In . SVG Version: 6.00 Build 0)  -->
<svg version="1.1" id="Capa_1" xmlns="http://www.w3.org/2000/svg" xmlns:xlink="http://www.w3.org/1999/xlink" x="0px" y="0px"
	 viewBox="0 0 200 200" style="enable-background:new 0 0 200 200;" xml:space="preserve">
<style type="text/css">
	.st0{fill:#030104;}
</style>
<g>
	<path class="st0" d="M144.5,81.1c-2.7,0-5,1.9-5.8,4.2h-0.4C136.8,65.8,120.7,50,100.7,50S64.1,65.8,63.3,85.4h-0.8
		c-0.8-2.3-3.1-4.2-5.8-4.2c-3.5,0-6.1,2.7-6.1,6.1c0,2.7,1.9,5.4,4.6,6.1c3.1,21.9,21.1,38.9,43.5,39.6v12.7H79.9l0,0
		c-1.1,0-1.9,0.8-1.9,1.9s0.8,2.3,1.9,2.3l0,0h41.5c1.1,0,1.9-0.8,1.9-1.9s-0.8-1.9-1.9-1.9h-18.9v-12.7c22.3-1.1,40.8-18.1,43.5-40
		c2.7-0.8,4.6-3.1,4.6-6.1C150.7,84.2,148,81.1,144.5,81.1z M69.9,74.6c1.5-3.9,4.2-7.7,7.3-10.8c3.1-3.1,6.5-5.4,10.8-7.3
		c4.2-1.9,8.5-2.7,13.1-2.7c4.6,0,8.9,0.8,13.1,2.7c3.9,1.5,7.7,4.2,10.8,7.3c3.1,3.1,5.4,6.5,7.3,10.8c1.9,4.2,2.7,8.5,2.7,13.1
		c0,4.6-0.8,8.9-2.7,13.1c-1.5,3.9-4.2,7.7-7.3,10.8c-3.1,3.1-6.5,5.4-10.8,7.3c-4.2,1.9-8.5,2.7-13.1,2.7c-4.6,0-8.9-0.8-13.1-2.7
		c-3.9-1.5-7.7-4.2-10.8-7.3c-3.1-3.1-5.4-6.5-7.3-10.8s-2.7-8.9-2.7-13.1C67.2,83.1,68,78.5,69.9,74.6z M56.8,89.6
		c-1.1,0-1.9-0.8-1.9-1.9c0-1.1,0.8-1.9,1.9-1.9s1.9,0.8,1.9,1.9C58.7,88.9,58,89.6,56.8,89.6z M139.1,103.9c-1.9,5-5,9.2-8.9,13.1
		s-8.5,6.9-13.1,8.9c-5,2.3-10.8,3.5-16.1,3.5s-11.1-1.1-16.1-3.5c-5-1.9-9.2-5-13.1-8.9c-3.9-3.9-6.9-8.5-8.9-13.1
		c-1.5-3.5-2.3-6.9-2.7-10.4c1.5-0.8,2.7-1.9,3.5-3.9h0.4c1.1,19.6,17.3,35.4,37.3,35.4s36.5-15.8,37.3-35.4h0.4
		c0.8,1.5,1.9,3.1,3.5,3.9C141.5,96.9,140.3,100.4,139.1,103.9z M144.5,89.6c-1.1,0-1.9-0.8-1.9-1.9c0-1.1,0.8-1.9,1.9-1.9
		s1.9,0.8,1.9,1.9C146.5,88.5,145.7,89.6,144.5,89.6z"/>
	<path class="st0" d="M73.3,89.6c1.1,0,1.9-0.8,1.9-1.9c0-6.5,2.7-13.1,7.3-17.7c4.6-4.6,11.1-7.3,17.7-7.3c1.1,0,1.9-0.8,1.9-1.9
		s-0.8-1.9-1.9-1.9c-16.1,0-29.2,13.1-29.2,29.2C71.5,88.5,72.2,89.6,73.3,89.6z"/>
</g>
</svg>
