<?xml version="1.0" encoding="utf-8"?>
<!-- Generator: Adobe Illustrator 19.2.1, SVG Export Plug-In . SVG Version: 6.00 Build 0)  -->
<svg version="1.1" id="Capa_1" xmlns="http://www.w3.org/2000/svg" xmlns:xlink="http://www.w3.org/1999/xlink" x="0px" y="0px"
	 viewBox="0 0 200 200" style="enable-background:new 0 0 200 200;" xml:space="preserve">
<style type="text/css">
	.st0{fill:#030104;}
</style>
<g transform="translate(0,-952.36218)">
	<path class="st0" d="M44,1005.7c0,1.4,1.4,2.8,2.8,2.8h13c2.3,0,2.8,0.5,3.3,1.9l12.1,64.7c0.5,1.4,1.4,2.3,2.8,2.3h63.7
		c1.4,0,2.8-1.4,2.8-2.8c0-1.4-1.4-2.8-2.8-2.8H79.4l-1.9-10.2H97c0.5,0,0.5,0,0.9,0h23.3c0.5,0,0.5,0,0.9,0h13.5
		c2.8,0,6.1-0.5,8.4-1.9c2.8-1.9,3.7-3.7,4.7-7.9l0,0l7.5-30.7v-0.5c0-1.4-1.4-2.8-2.8-2.8h-31.6c-0.5,0-0.5,0-0.9,0c0,0,0,0-0.5,0
		H97c-0.5,0-0.5,0-0.9,0c0,0,0,0-0.5,0H68.2l-1.9-9.3c0,0,0,0,0-0.5c-0.9-3.7-4.7-5.6-8.4-5.6H45.4C45,1002.9,44,1004.3,44,1005.7z
		 M70.5,1023.3h24.7v13.9H73.3L70.5,1023.3z M99.8,1023.3h19.1v13.9H99.8V1023.3z M124,1023.3h26.5l-3.3,13.9h-22.8v-13.9
		L124,1023.3L124,1023.3z M73.8,1042.4h20.9v13.9H76.1L73.8,1042.4z M99.8,1042.4h19.1v13.9H99.8V1042.4z M124,1042.4h21.4l-1.9,8.9
		c-0.9,2.8-1.9,3.7-2.8,4.7c-0.9,0.5-2.8,0.9-5.6,0.9h-11.6v-14.4L124,1042.4L124,1042.4z M89.6,1082c-5.6,0-10.2,4.7-10.2,10.2
		c0,5.5,4.7,10.2,10.2,10.2s10.2-4.7,10.2-10.2C99.8,1086.7,95.2,1082,89.6,1082z M130.5,1082c-5.6,0-10.2,4.7-10.2,10.2
		c0,5.5,4.7,10.2,10.2,10.2c5.5,0,10.2-4.7,10.2-10.2C140.8,1086.6,136.1,1082,130.5,1082z M89.6,1087.1c2.8,0,5.1,2.3,5.1,5.1
		s-2.3,5.1-5.1,5.1s-5.1-2.3-5.1-5.1C85,1089.4,87.3,1087.1,89.6,1087.1z M130.5,1087.1c2.8,0,5.1,2.3,5.1,5.1s-2.3,5.1-5.1,5.1
		c-2.8,0-5.1-2.3-5.1-5.1S127.8,1087.1,130.5,1087.1z"/>
</g>
</svg>
