<?xml version="1.0" encoding="utf-8"?>
<!-- Generator: Adobe Illustrator 19.2.1, SVG Export Plug-In . SVG Version: 6.00 Build 0)  -->
<svg version="1.1" id="Capa_1" xmlns="http://www.w3.org/2000/svg" xmlns:xlink="http://www.w3.org/1999/xlink" x="0px" y="0px"
	 viewBox="0 0 200 200" style="enable-background:new 0 0 200 200;" xml:space="preserve">
<style type="text/css">
	.st0{fill:#030104;}
</style>
<path class="st0" d="M100,50c-27.8,0-50,22.2-50,50s22.2,50,50,50s50-22.2,50-50S127.8,50,100,50z M100,140.5
	c-22.8,0-40.5-18.3-40.5-40.5S77.2,59.5,100,59.5s40.5,18.3,40.5,40.5S122.8,140.5,100,140.5z"/>
<path class="st0" d="M113.9,81.1c-4.5,4.5-9.5,9.5-13.9,13.9c-4.5-4.5-9.5-8.9-13.9-13.3c-3.9-4.5-10.5,2.2-6.1,6.1
	c4.5,5,8.9,9.5,13.3,13.9c-4.5,4.5-8.9,9.5-13.3,13.9c-3.9,3.9,2.2,10.5,6.7,6.7c4.5-4.5,9.5-9.5,13.9-13.9
	c4.5,4.5,9.5,9.5,13.9,13.9c3.9,3.9,10.5-2.2,6.7-6.7c-4.5-4.5-9.5-9.5-13.9-13.9c4.5-4.5,9.5-9.5,13.9-13.9
	C124.5,83.3,117.8,77.2,113.9,81.1z"/>
</svg>
