<?xml version="1.0" encoding="utf-8"?>
<!-- Generator: Adobe Illustrator 19.2.1, SVG Export Plug-In . SVG Version: 6.00 Build 0)  -->
<svg version="1.1" id="Capa_1" xmlns="http://www.w3.org/2000/svg" xmlns:xlink="http://www.w3.org/1999/xlink" x="0px" y="0px"
	 viewBox="0 0 200 200" style="enable-background:new 0 0 200 200;" xml:space="preserve">
<style type="text/css">
	.st0{fill:#030104;}
</style>
<path class="st0" d="M149.2,121.3c1,0.5,2.4,1,4.3,1c8.2,0,10.7-6.8,10.7-10.7V86.4c0-5.8-4.8-10.7-10.7-10.7c-1.5,0-2.9,0.5-4.3,1
	v-2c0-5.3-3.4-10.7-10.7-10.7c-6.8,0-10.7,4.8-10.7,10.7v13.6H74V74.8c0-5.8-3.9-10.7-10.7-10.7c-7.3,0-10.7,5.3-10.7,10.7v2
	c-1.5-0.5-2.9-1-4.3-1c-5.8,0-10.7,4.8-10.7,10.7v25.2c0,3.9,2.4,10.7,10.7,10.7c1.5,0,2.9-0.5,4.3-1v2c0,5.8,4.8,10.7,10.7,10.7
	c2.9,0,5.3-1,7.3-2.9c2-2,2.9-4.8,2.9-7.3v-13.6h53.9v13.1c0,2.9,1,5.3,2.9,7.3c2,2,4.8,2.9,7.3,2.9c5.8,0,10.7-4.8,10.7-10.7
	L149.2,121.3z M48.8,116c-2.4,0-4.4-2-4.4-4.3V86.4c0-2.4,2-4.3,4.4-4.3c2.4,0,4.3,2,4.3,4.3v25.2C53.1,114,50.7,116,48.8,116z
	 M67.7,123.2c0,2.4-2,4.3-4.3,4.3c-2.4,0-4.3-2-4.3-4.3v-49c0-2.4,2-4.3,4.3-4.3c2.4,0,4.3,2,4.3,4.3V123.2z M74,102.9v-8.7h53.9
	v8.7H74z M139,127.6c-2.4,0-4.3-2-4.3-4.3v-49c0-2.4,2-4.3,4.3-4.3c2.4,0,4.3,2,4.3,4.3v49C142.9,125.7,140.9,127.6,139,127.6z
	 M149.2,111.6V86.4c0-2.4,2-4.3,4.3-4.3c2.4,0,4.3,2,4.3,4.3v25.2c0,2.4-2,4.3-4.3,4.3C151.1,116,149.2,114,149.2,111.6z"/>
</svg>
