<?xml version="1.0" encoding="utf-8"?>
<!-- Generator: Adobe Illustrator 19.2.1, SVG Export Plug-In . SVG Version: 6.00 Build 0)  -->
<svg version="1.1" id="Capa_1" xmlns="http://www.w3.org/2000/svg" xmlns:xlink="http://www.w3.org/1999/xlink" x="0px" y="0px"
	 viewBox="0 0 200 200" style="enable-background:new 0 0 200 200;" xml:space="preserve">
<style type="text/css">
	.st0{fill:#231F20;}
</style>
<g>
	<g id="Google_x2B__13_">
		<g>
			<path class="st0" d="M94.5,53.9c0.5,0.5,2,1.5,2.5,2.5c1.5,1.5,2.5,2.5,2.5,4c1.5,2,2,3,2.5,5c0.5,2,1,4,1,7c0,5-1,8-3,11
				c-1,1.5-2.5,2.5-3,4c-1,1.5-2.5,2.5-4,3c-0.5,0.5-2,2-2.5,2.5c-0.5,1.5-1,2.5-1,4c0,1,0.5,2.5,1,3c0.5,1,1.5,2,2.5,2.5l4.5,4
				c2.5,2.5,5,5,7,7.5c2.5,2.5,2.5,7,2.5,11c0,7-2.5,12-8,17c-6,5-14.5,7.5-25,7.5c-9.5,0-16-2.5-20.5-6c-4.5-3-7-7.5-7-12.5
				c0-2.5,0.5-5,2.5-8c2-2.5,4-5.5,7.5-7.5c4.5-2.5,8.5-4,13-5c4.5-0.5,8-1,12-1c-1.5-1.5-2-2.5-2.5-4c-1.5-1-1.5-2.5-1.5-5
				c0-1.5,0-2.5,0.5-2.5c0.5,0,0.5-2,0.5-2.5c-2,0-2.5,0-4.5,0c-7,0-12-2.5-16-7c-4-4-5.5-8.5-5.5-14c0-7,2.5-12,8-17.5
				c4-3,7.5-5,12-6c4-0.5,7.5-1.5,11-1.5H109l-8,5L94.5,53.9L94.5,53.9z M99,129.4c0-3-1.5-6-3-9c-2.5-2.5-6-5-10.5-9
				c-0.5,0-2,0-2.5,0c-0.5,0-2.5,0-5,0c-2.5,0.5-5.5,0.5-8,1c-0.5,0-2,0.5-2.5,1.5c-1.5,0.5-2.5,1-4,2.5c-1.5,1.5-2.5,2.5-3,4
				c-1.5,2-2,4-2,6.5c0,4.5,2.5,8,6,12c4,2.5,9.5,4.5,16,4.5c6,0,11-2,14-3.5C98.5,136.4,99,133.4,99,129.4z M81.5,90.9
				c3,0,6-1.5,9-4c1.5-2,2-3,2.5-5c0-2,0.5-3,0.5-4.5c0-5-1.5-10.5-4-15.5c-1.5-2.5-2.5-4.5-5-6.5s-4.5-2.5-7-2.5c-3,0-7,2-9,4.5
				c-2.5,2.5-2.5,6-2.5,10c0,5,1.5,10,4,15c1,2.5,3,4.5,5,6C76,89.9,79,90.9,81.5,90.9z"/>
			<rect x="129.5" y="75.9" class="st0" width="8" height="35.5"/>
			<rect x="116" y="89.9" class="st0" width="35.5" height="8"/>
		</g>
	</g>
</g>
</svg>
