<?xml version="1.0" encoding="utf-8"?>
<!-- Generator: Adobe Illustrator 19.2.1, SVG Export Plug-In . SVG Version: 6.00 Build 0)  -->
<svg version="1.1" id="Capa_1" xmlns="http://www.w3.org/2000/svg" xmlns:xlink="http://www.w3.org/1999/xlink" x="0px" y="0px"
	 viewBox="0 0 200 200" style="enable-background:new 0 0 200 200;" xml:space="preserve">
<g>
	<path d="M148.3,75.7c-0.9,0-1.9,0-2.3,0.5v-2.8c0-7-5.6-12.6-12.6-12.6h-61c-6,0-17.8,5.1-17.8,12.6v2.8c-0.9,0-1.9-0.5-2.3-0.5
		c-7,0-12.6,5.6-12.6,12.6c0,4.2,1.9,7.9,5.1,10.3l0,0V134c0,1.4,0.9,2.3,2.3,2.3h15c1.4,0,2.3-0.9,2.3-2.3v-2.3h70.9v2.3
		c0,1.4,0.9,2.3,2.3,2.3h15c1.4,0,2.3-0.9,2.3-2.3V98.5l0,0c3.2-2.3,5.1-6,5.1-10.3C160.9,81.3,155.3,75.7,148.3,75.7z M59.8,78.5
		v-5.1c0-3.7,7.5-7.5,12.6-7.5H133c4.2,0,7.5,3.2,7.5,7.5v5.1l0,0c-3.2,2.3-5.1,6-5.1,10.3v12.1H64.8V88.2
		C64.8,84.5,63,80.8,59.8,78.5L59.8,78.5z M64.8,106h70.9v5.1H64.8V106z M59.8,131.2H50v-30.3c0.5,0,1.4,0,2.3,0
		c1.4,0,2.3-0.9,2.3-2.3c0-1.4-0.9-2.3-2.3-2.3c-4.2,0-7.5-3.2-7.5-7.5c0-4.2,3.2-7.5,7.5-7.5s7.5,3.2,7.5,7.5v15v10.3v15
		C59.8,128.8,59.8,131.2,59.8,131.2z M64.8,126.5v-10.2h70.9v10.3L64.8,126.5L64.8,126.5z M148.3,96.2c-1.4,0-2.3,0.9-2.3,2.3
		c0,1.4,0.9,2.3,2.3,2.3c0.9,0,1.9,0,2.3-0.5v30.8h-10.3v-2.3v-15v-10.3V88.7c0-4.2,3.2-7.5,7.5-7.5c4.2,0,7.5,3.2,7.5,7.5
		C155.3,92.9,152.6,96.2,148.3,96.2z"/>
</g>
</svg>
