<?xml version="1.0" encoding="utf-8"?>
<!-- Generator: Adobe Illustrator 19.2.1, SVG Export Plug-In . SVG Version: 6.00 Build 0)  -->
<svg version="1.1" id="Capa_1" xmlns="http://www.w3.org/2000/svg" xmlns:xlink="http://www.w3.org/1999/xlink" x="0px" y="0px"
	 viewBox="0 0 200 200" style="enable-background:new 0 0 200 200;" xml:space="preserve">
<g>
	<path d="M157.3,89.3c4-1,6.5-4.5,6.5-9c0-5-4-9-9-9h-6l-3-9c-4.5-13.6-18.1-13.6-18.1-13.6h-9H81.9h-9c0,0-13.6,0-18.1,13.6l-4,9
		h-6c-5,0-9,4-9,9c0,4,2.5,7.5,6.5,9c-4,3-6.5,8-6.5,14.1v18.1c0,2.5,1.5,4.5,4.5,6.5v16c0,2.5,2,4.5,4.5,4.5h13.6
		c2.5,0,4.5-2,4.5-4.5v-10.6c13.1,1.5,27.6,1.5,36.7,1.5c8.5,0,23.6,0,36.7-1.5V144c0,2.5,2,4.5,4.5,4.5h13.6c2.5,0,4.5-2,4.5-4.5
		v-16.1c3-1.5,4.5-4,4.5-6.5v-18.1C163.8,97.3,160.8,92.3,157.3,89.3z M154.3,75.7c2.5,0,4.5,2,4.5,4.5s-2,4.5-4.5,4.5h-1.5l-3-9
		H154.3z M58.3,63.1c1.5-4,4-7.5,8-9c1.5-0.5,4-1.5,5.5-1.5h54.8c1.5,0,4,0.5,5.5,1.5c4,2,7,5,8,9l7.5,21.6h-2.5l0,0l0,0h-4.5H58.3
		h-4.5l0,0l0,0h-2.5L58.3,63.1z M40.2,80.2c0-2.5,2-4.5,4.5-4.5h4.5l-3,9h-1.5C42.2,84.7,40.2,82.7,40.2,80.2z M58.3,144H44.7v-14
		c4,1.5,8.5,2.5,13.6,3C58.3,133,58.3,144,58.3,144z M154.3,144h-13.6v-11c5-1,10.1-1.5,13.6-3V144z M158.8,121.4
		C158.8,121.4,158.8,121.9,158.8,121.4c-1,2.5-7,4.5-9,5c-7,2-14.6,2.5-22.1,3c-9.5,0.5-19.1,1-28.6,1s-19.1,0-28.1-1
		c-7-0.5-15.1-1-22.1-3c-2-0.5-8.5-2.5-9-5v-0.5v-18.1c0-7.5,6-13.6,13.6-13.6H58h82.4h4.5c7.5,0,13.6,6,13.6,13.6L158.8,121.4
		L158.8,121.4z M145.2,98.3c-5,0-9,4-9,9s4,9,9,9s9-4,9-9C154.3,102.8,150.3,98.3,145.2,98.3z M145.2,112.4c-2.5,0-4.5-2-4.5-4.5
		s2-4.5,4.5-4.5s4.5,2,4.5,4.5S147.7,112.4,145.2,112.4z M53.8,98.3c-5,0-9,4-9,9s4,9,9,9s9-4,9-9C63.3,102.8,58.8,98.3,53.8,98.3z
		 M53.8,112.4c-2.5,0-4.5-2-4.5-4.5s2-4.5,4.5-4.5s4.5,2,4.5,4.5S56.8,112.4,53.8,112.4z M120.1,112.4H78.9c-1,0-2.5,1-2.5,2.5
		c0,1,1,2.5,2.5,2.5h41.2c1,0,2.5-1,2.5-2.5C122.6,113.4,121.6,112.4,120.1,112.4z M124.6,103.3H74.4c-1,0-2.5,1-2.5,2.5
		c0,1,1,2.5,2.5,2.5h50.3c1,0,2.5-1,2.5-2.5C127.1,104.3,126.1,103.3,124.6,103.3z"/>
</g>
</svg>
