<?xml version="1.0" encoding="utf-8"?>
<!-- Generator: Adobe Illustrator 19.2.1, SVG Export Plug-In . SVG Version: 6.00 Build 0)  -->
<svg version="1.1" id="Capa_1" xmlns="http://www.w3.org/2000/svg" xmlns:xlink="http://www.w3.org/1999/xlink" x="0px" y="0px"
	 viewBox="0 0 200 200" style="enable-background:new 0 0 200 200;" xml:space="preserve">
<path d="M168.1,117.3l-6.2-60.7c0-2.3-1.1-4.5-3.4-5.7c-1.7-1.1-4-2.3-6.8-1.7l-90.2,9.1c-2.3,0-4.5,1.1-5.7,3.4
	c-1.1,1.7-2.3,4-1.7,6.8v1.1H41c-5.1,0-9.1,4-9.1,9.1V140c0,5.1,4,9.1,9.1,9.1h90.8c5.1,0,9.1-4,9.1-9.1v-10.8l19.3-1.7
	c2.3,0,4.5-1.1,5.7-3.4C167.5,121.9,168.1,119.6,168.1,117.3z M131.2,74.2c0.6,0,1.7,0,2.3,0.6l-47.1,35.2L37.6,75.3
	c0.6-0.6,1.7-1.1,2.8-1.1H131.2z M41,144c-0.6,0-1.1,0-1.1,0l34-38.6l-3.4-2.8l-34,38V140V79.3L86.4,115l49.4-36.9v61.3
	c0,0,0,0.6,0,1.1l-33.5-38l-3.4,2.8l34,38.6c0,0-0.6,0-1.1,0H41L41,144z M162.4,121.3c-0.6,1.1-1.7,1.1-2.8,1.7l-18.7,1.7V78.2
	c0-5.1-4-9.1-9.1-9.1H58v-1.7c0-1.1,0-2.3,1.1-3.4c0.6-1.1,1.7-1.1,2.8-1.7l90.2-9.6c1.1,0,2.3,0,3.4,1.1c1.1,0.6,1.1,2.3,1.7,3.4
	l6.2,61.3C164.1,119,163.5,120.2,162.4,121.3z"/>
</svg>
