<?xml version="1.0" encoding="utf-8"?>
<!-- Generator: Adobe Illustrator 19.2.1, SVG Export Plug-In . SVG Version: 6.00 Build 0)  -->
<svg version="1.1" id="Capa_1" xmlns="http://www.w3.org/2000/svg" xmlns:xlink="http://www.w3.org/1999/xlink" x="0px" y="0px"
	 viewBox="0 0 200 200" style="enable-background:new 0 0 200 200;" xml:space="preserve">
<g>
	<path d="M160.2,78.4c-5.8-13.8-25.4-29.6-60.8-29.6S44.8,64.6,38.5,78.4c-3.2,7.9-3.7,14.3-1.1,18.5c1.1,2.1,3.7,3.7,9.5,3.7h11.6
		v36.5c0,6.3,6.3,11.6,12.7,11.6h55.6c6.3,0,12.7-4.8,12.7-11.6v-35.4h11.6c5.3,0,7.9-2.1,9.5-3.7C163.9,93.2,163.4,86.8,160.2,78.4
		z M66,136.6v-34.9c7.9,0,11.1-3.7,11.1-13.2c0-6.3,3.2-9.5,10.6-9.5h22.2c7.4,0,10.6,3.2,10.6,9.5c0,9,3.2,13.2,11.1,13.2v34.9
		c0,3.2-1.6,5.3-4.8,5.3H71.3C68.1,141.9,66,139.8,66,136.6z M132.7,95.8c-3.2,0-5.3-0.5-5.3-6.9c0-9.5-6.3-15.9-16.9-15.9H88.2
		c-10.6,0-16.9,5.8-16.9,15.9c0,6.3-1.6,6.9-5.3,6.9H47c-3.2,0-3.7-1.6-3.7-1.6c-1.6-2.6-1.1-7.4,1.6-13.2
		c0.5-2.1,12.7-25.4,54.5-25.4s54,23.3,54.5,25.9c2.6,5.8,3.2,10.6,1.6,13.2c0,0.5-1.1,1.6-3.7,1.6h-19V95.8z"/>
	<path d="M89.8,105.9c0,1.1-1.1,2.1-2.1,2.1h-5.8c-1.1,0-2.1-1.1-2.1-2.1v-6.3c0-1.1,1.1-2.1,2.1-2.1h6.3c1.1,0,2.1,1.1,2.1,2.1v6.3
		H89.8z"/>
	<path d="M104.1,105.9c0,1.1-1.1,2.1-2.1,2.1h-6.3c-1.1,0-2.1-1.1-2.1-2.1v-6.3c0-1.1,1.1-2.1,2.1-2.1h6.3c1.1,0,2.1,1.1,2.1,2.1
		V105.9z"/>
	<path d="M119.4,105.9c0,1.1-1.1,2.1-2.1,2.1H111c-1.1,0-2.1-1.1-2.1-2.1v-6.3c0-1.1,1.1-2.1,2.1-2.1h6.3c1.1,0,2.1,1.1,2.1,2.1
		V105.9z"/>
	<path d="M104.1,99.5c0-1.1-1.1-2.1-2.1-2.1h-6.3c-1.1,0-2.1,1.1-2.1,2.1v6.3c0,1.1,1.1,2.1,2.1,2.1h6.3c1.1,0,2.1-1.1,2.1-2.1V99.5
		z"/>
	<path d="M89.8,99.5c0-1.1-1.1-2.1-2.1-2.1h-5.8c-1.1,0-2.1,1.1-2.1,2.1v6.3c0,1.1,1.1,2.1,2.1,2.1h6.3c1.1,0,2.1-1.1,2.1-2.1v-6.3
		H89.8z"/>
	<path d="M119.4,105.9c0,1.1-1.1,2.1-2.1,2.1H111c-1.1,0-2.1-1.1-2.1-2.1v-6.3c0-1.1,1.1-2.1,2.1-2.1h6.3c1.1,0,2.1,1.1,2.1,2.1
		V105.9z"/>
	<path d="M104.1,114.9c0-1.1-1.1-2.1-2.1-2.1h-6.3c-1.1,0-2.1,1.1-2.1,2.1v6.3c0,1.1,1.1,2.1,2.1,2.1h6.3c1.1,0,2.1-1.1,2.1-2.1
		V114.9z"/>
	<path d="M89.8,114.9c0-1.1-1.1-2.1-2.1-2.1h-5.8c-1.1,0-2.1,1.1-2.1,2.1v6.3c0,1.1,1.1,2.1,2.1,2.1h6.3c1.1,0,2.1-1.1,2.1-2.1v-6.3
		H89.8z"/>
	<path d="M119.4,121.2c0,1.1-1.1,2.1-2.1,2.1H111c-1.1,0-2.1-1.1-2.1-2.1v-6.3c0-1.1,1.1-2.1,2.1-2.1h6.3c1.1,0,2.1,1.1,2.1,2.1
		V121.2z"/>
	<path d="M104.1,128.6c0-1.1-1.1-2.1-2.1-2.1h-6.3c-1.1,0-2.1,1.1-2.1,2.1v6.3c0,1.1,1.1,2.1,2.1,2.1h6.3c1.1,0,2.1-1.1,2.1-2.1
		V128.6z"/>
	<path d="M89.8,128.6c0-1.1-1.1-2.1-2.1-2.1h-5.8c-1.1,0-2.1,1.1-2.1,2.1v6.3c0,1.1,1.1,2.1,2.1,2.1h6.3c1.1,0,2.1-1.1,2.1-2.1v-6.3
		H89.8z"/>
	<path d="M119.4,135c0,1.1-1.1,2.1-2.1,2.1H111c-1.1,0-2.1-1.1-2.1-2.1v-6.3c0-1.1,1.1-2.1,2.1-2.1h6.3c1.1,0,2.1,1.1,2.1,2.1V135z"
		/>
</g>
</svg>
