<?xml version="1.0" encoding="utf-8"?>
<!-- Generator: Adobe Illustrator 19.2.1, SVG Export Plug-In . SVG Version: 6.00 Build 0)  -->
<svg version="1.1" id="Capa_1" xmlns="http://www.w3.org/2000/svg" xmlns:xlink="http://www.w3.org/1999/xlink" x="0px" y="0px"
	 viewBox="0 0 200 200" style="enable-background:new 0 0 200 200;" xml:space="preserve">
<g>
	<path d="M76.9,125.2c0.9,0,1.3-0.4,1.7-0.9l16.5-19.5h0.4v15.3c0,1.3,0.9,2.1,2.1,2.1c1.3,0,2.1-0.9,2.1-2.1v-15.3
		c2.5-0.9,4.3-3.4,4.3-5.9c0-3.4-3-6.3-6.3-6.3c-3.4,0-6.3,3-6.3,6.3c0,0.9,0,1.7,0.4,2.5l-17,19.5c-0.9,0.9-0.9,2.5,0.4,3.4
		C75.6,125.2,76.5,125.2,76.9,125.2z M98,97.3c0.9,0,2.1,0.9,2.1,2.1c0,0.9-0.9,2.1-2.1,2.1c-0.9,0-1.7-0.9-1.7-2.1
		C96,98.1,96.8,97.3,98,97.3z"/>
	<path d="M55.7,99.4v0.4c0,7.2,1.7,13.6,5.1,19.5v0.4l0.4,0.4c3.4,5.9,8.5,11,14.4,14.9l3,17c0,1.3,1.3,1.7,2.1,1.7h33.9
		c1.3,0,2.1-0.9,2.1-1.7l3-17c5.9-3.8,11-8.9,14.4-14.9l0.4-0.4v-0.4c2.1-3.8,3.8-8.1,4.3-12.7c0.4,0.4,1.3,0.4,1.7,0.4
		c2.1,0,4.3-1.7,4.3-4.3v-6.3c0-2.1-1.7-4.3-4.3-4.3c-0.4,0-1.3,0-1.7,0.4c-0.9-4.7-2.1-8.9-4.3-13.1v-0.4l-0.4-0.4
		c-3.4-5.9-8.5-11-14.4-14.9L116.3,46c0-1.3-1.3-1.7-2.1-1.7H80.3c-1.3,0-2.1,0.9-2.1,1.7l-3.4,17.8c-5.9,3.8-10.6,8.9-14.4,14.9
		L60,79.1v0.4c-3,5.9-5.1,12.2-5.1,19.5C55.7,99,55.7,99.4,55.7,99.4z M113.4,149.4H83.3l-2.1-11.5c5.1,2.1,10.6,3.4,16.5,3.8h0.4
		h0.4c5.9,0,11.5-1.3,16.5-3.8L113.4,149.4z M82.8,48.6h30.5l2.1,12.2c-5.1-2.1-11-3.8-17-3.8H98h-0.4c-5.9,0-11.9,1.3-17,3.8
		L82.8,48.6z M77.7,67.6l2.6,5.1c0.4,0.9,1.3,1.3,2.1,1.3c0.4,0,0.9,0,1.3-0.4c1.3-0.4,1.7-2.1,0.9-3L82.1,66
		c4.3-2.1,8.9-3.4,14-3.8v5.5c0,1.3,0.9,2.1,2.1,2.1c1.3,0,2.1-0.9,2.1-2.1v-5.9c5.1,0.4,9.7,1.7,14,3.8l-2.5,4.7
		c-0.4,1.3-0.4,2.5,0.9,3c0.4,0,0.9,0.4,1.3,0.4c0.9,0,1.7-0.4,2.1-1.3l2.5-5.1c4.7,3,8.5,6.8,11.5,11.5l-5.1,3.4
		c-1.3,0.4-1.7,2.1-0.9,3c0.4,0.9,1.3,1.3,2.1,1.3c0.4,0,0.9,0,1.3-0.4l5.1-2.5c2.1,4.3,3.4,8.9,3.4,13.6h-5.5
		c-1.3,0-2.1,0.9-2.1,2.1c0,1.2,0.9,2.1,2.1,2.1h5.5c-0.4,5.1-1.7,9.3-3.4,13.6l-5.1-2.5c-1.3-0.4-2.5,0-3,0.9c-0.4,1.3,0,2.5,0.9,3
		l5.1,2.5c-3,4.7-6.8,8.5-11.5,11.5l-2.5-5.1c-0.4-1.3-2.1-1.7-3-0.9c-1.3,0.4-1.7,2.1-0.9,3l2.5,4.7c-4.3,2.1-8.9,3.4-14,3.8v-5.5
		c0-1.3-0.9-2.1-2.1-2.1c-1.3,0-2.1,0.9-2.1,2.1v5.5c-5.1-0.4-9.7-1.7-14-3.8l2.5-4.7c0.4-1.3,0.4-2.5-0.9-3c-1.3-0.4-2.5-0.4-3,0.9
		l-2.5,5.1c-4.7-3-8.5-6.8-11.5-11.5l5.1-2.5c1.3-0.4,1.7-2.1,0.9-3c-0.4-1.3-2.1-1.7-3-0.9l-5.1,2.5c-2.1-4.3-3.4-8.9-3.4-13.6h5.5
		c1.3,0,2.1-0.9,2.1-2.1c0-1.3-0.9-2.1-2.1-2.1h-7.2c0.4-5.1,1.7-9.3,3.4-13.6l5.1,2.5c0.4,0.4,0.9,0.4,1.3,0.4
		c0.9,0,1.7-0.4,2.1-1.3c0.4-1.3,0-2.5-0.9-3l-5.1-2.5C69.3,74.8,73.1,70.6,77.7,67.6z"/>
</g>
</svg>
