<?xml version="1.0" encoding="utf-8"?>
<!-- Generator: Adobe Illustrator 19.2.1, SVG Export Plug-In . SVG Version: 6.00 Build 0)  -->
<svg version="1.1" id="Capa_1" xmlns="http://www.w3.org/2000/svg" xmlns:xlink="http://www.w3.org/1999/xlink" x="0px" y="0px"
	 viewBox="0 0 200 200" style="enable-background:new 0 0 200 200;" xml:space="preserve">
<g>
	<path d="M139.8,140H59.1c-5.4,0-9.6-4.2-9.6-9.6c0-1.1,1.1-2.3,2.3-2.3c1.1,0,2.3,1.1,2.3,2.3c0,2.7,2.3,4.6,4.6,4.6h80.8
		c2.7,0,4.6-2.3,4.6-4.6c0-1.1,1.1-2.3,2.3-2.3s2.3,1.1,2.3,2.3C149.1,135.7,144.9,140,139.8,140z M149.1,116.4
		c0,3.8-3.1,7.3-7.3,7.3H56.4c-3.8,0-7.3-3.1-7.3-7.3c0-3.8,3.5-6.9,7.3-6.9h28.5l9.3,4.6H56.4c-1.1,0-2.3,1.1-2.3,2.3
		c0,1.1,1.1,2.3,2.3,2.3h47.3l5.4,2.7c0.7,0.4,1.9,0.7,2.7,0.7c1.9,0,3.8-1.1,5-2.7l0.4-0.7h25c1.1,0,2.3-1.1,2.3-2.3
		c0-1.1-1.1-2.3-2.3-2.3h-21.9l3.1-4.6h18.8C146,109.5,149.1,112.6,149.1,116.4z M146.8,100h-26.1c-0.7,0-1.5,0.4-1.9,1.1l-2.3,3.8
		l-3.1,4.6l-2.3,3.8l-7.7-3.8l-9.3-4.6l-8.9-4.6c-0.4,0-0.7-0.4-1.1-0.4H51.8c-1.1,0-2.3,1.1-2.3,2.3c0,1.1,1.1,2.3,2.3,2.3h31.6
		l9.3,4.6l9.3,4.6l8.4,4.2c0.4,0,0.7,0.4,1.1,0.4c0.7,0,1.5-0.4,1.9-1.1l2.3-3.5l6.2-9.6h25c1.1,0,2.3-1.1,2.3-2.3
		C149.1,101.1,148.4,100,146.8,100z M149.1,88L149.1,88c0,3.8-3.1,6.9-6.6,7.3h-0.4H56.4H56c-3.8-0.4-6.6-3.5-6.6-6.9l0,0
		c0-16.6,21.9-29.6,50-29.6S149.1,71.1,149.1,88z M144.5,88c0-13.9-20.4-25-45.4-25s-45,11.1-45,25l0,0c0,0,0,0,0,0.4
		c0,1.1,1.1,1.9,2.3,1.9h85.8C143.3,90.3,144.5,89.6,144.5,88L144.5,88L144.5,88z"/>
</g>
</svg>
