<?xml version="1.0" encoding="utf-8"?>
<!-- Generator: Adobe Illustrator 19.2.1, SVG Export Plug-In . SVG Version: 6.00 Build 0)  -->
<svg version="1.1" id="Capa_1" xmlns="http://www.w3.org/2000/svg" xmlns:xlink="http://www.w3.org/1999/xlink" x="0px" y="0px"
	 viewBox="0 0 200 200" style="enable-background:new 0 0 200 200;" xml:space="preserve">
<style type="text/css">
	.st0{fill:#030104;}
</style>
<g>
	<path class="st0" d="M79.3,107.7l-27.9,27.9c-3,3-3,8.5,0,11.8c3,3,8.5,3,11.8,0l27.9-27.9L79.3,107.7z"/>
	<path class="st0" d="M136.7,61.2c-15.3-15.3-40.7-15.3-56,0c-14.8,14.8-15.3,38.7-2,54c0,0,3,3.5,3,3c15.3,13.3,39.2,12.8,54-2
		C152.2,101.9,152.2,77,136.7,61.2z M108.5,119.7c-16.8,0-29.7-13.3-29.7-29.7c0-16.8,13.3-29.7,29.7-29.7
		c16.8,0,29.7,13.3,29.7,29.7C139.2,105.7,125.3,119.7,108.5,119.7z"/>
	<path class="st0" d="M108.5,64.2c2,0,3.5,2,3.5,3.5c0,2-2,3.5-3.5,3.5c-9.8,0-17.8,8-17.8,17.8c0,2-2,3.5-3.5,3.5s-3.5-2-3.5-3.5
		C83.6,75.5,95.2,64.2,108.5,64.2z"/>
</g>
</svg>
