<?xml version="1.0" encoding="utf-8"?>
<!-- Generator: Adobe Illustrator 19.2.1, SVG Export Plug-In . SVG Version: 6.00 Build 0)  -->
<svg version="1.1" id="Capa_1" xmlns="http://www.w3.org/2000/svg" xmlns:xlink="http://www.w3.org/1999/xlink" x="0px" y="0px"
	 viewBox="0 0 200 200" style="enable-background:new 0 0 200 200;" xml:space="preserve">
<path d="M162.5,49h-125C30.6,49,25,54.6,25,61.5v75c0,6.9,5.6,12.5,12.5,12.5h125c6.9,0,12.5-5.6,12.5-12.5v-75
	C175,54.6,169.4,49,162.5,49z M160.6,57.1l-1.2,1.2L100,110.2L40.6,58.4l-1.2-1.2H160.6z M35,133.4L35,133.4l-1.2,1.2V63.4l1.2,1.2
	l0,0L74.4,99L35,133.4z M39.4,140.9l1.2-1.2l40.6-35L97.5,119c0.6,0.6,1.9,1.3,2.5,1.3s1.9-0.6,2.5-1.3l16.2-14.4l40.6,35l1.2,1.2
	H39.4z M166.9,134.6l-1.2-1.2l0,0l-40-34.4L165,64.6l0,0l1.2-1.2L166.9,134.6L166.9,134.6z"/>
</svg>
