<?xml version="1.0" encoding="utf-8"?>
<!-- Generator: Adobe Illustrator 19.2.1, SVG Export Plug-In . SVG Version: 6.00 Build 0)  -->
<svg version="1.1" id="Capa_1" xmlns="http://www.w3.org/2000/svg" xmlns:xlink="http://www.w3.org/1999/xlink" x="0px" y="0px"
	 viewBox="0 0 200 200" style="enable-background:new 0 0 200 200;" xml:space="preserve">
<path d="M99.4,49C71.9,49,49,71.5,49,99s22.5,50,50,50s50-22.5,50-50C149.4,71.5,126.5,49,99.4,49z M124,135.2l-2.1-3.8l-5.4,3.3
	l2.1,3.8c-5,2.5-10.4,3.8-16.2,4.2v-10.4h-6.2v10.4c-5.4-0.4-10.8-1.7-15.4-4.2l2.1-3.8l-5.4-3.3l-2.1,3.8c-5-3.3-8.8-7.1-12.1-12.1
	l3.7-2.1l-2.9-5.4l-3.8,2.5c-2.5-5-3.8-10.4-4.2-16.2h10.4v-6.2H56.1c0.4-5.4,1.7-10.8,4.2-15.4l3.8,2.1l3.3-5.4l-3.8-2.1
	c0.8-1.7,2.1-3.3,3.3-4.6L94,97.3c-0.4,0.4-0.4,0.8-0.4,1.2c0,0.4,0,1.2,0.4,1.7l-15.4,15.8l4.6,4.2l15.4-15.8
	c0.4,0,0.8,0.4,1.2,0.4c3.3,0,6.2-2.5,6.2-6.2c0-3.3-2.5-6.2-6.2-6.2c-0.4,0-0.8,0-1.2,0.4L71.1,66.5c1.2-0.8,2.5-2.1,3.8-3.3
	l2.1,3.7l5.4-3.3l-2.1-3.8c5-2.5,10.4-3.8,16.2-4.2v10h6.2V55.2c5.4,0.4,10.8,1.7,15.4,4.2l-2.1,3.8l5.4,3.3l2.1-3.8
	c5,3.3,8.8,7.1,12.1,12.1l-3.8,2.1l3.3,5.4l3.8-2.1c2.5,5,3.8,10.4,4.2,16.2h-10.4v6.2h10.4c-0.4,5.4-1.7,10.8-4.2,15.4l-3.7-2.5
	l-3.3,5.4l3.8,2.1C132.3,127.8,128.6,131.9,124,135.2z"/>
</svg>
