<?xml version="1.0" encoding="utf-8"?>
<!-- Generator: Adobe Illustrator 19.2.1, SVG Export Plug-In . SVG Version: 6.00 Build 0)  -->
<svg version="1.1" id="Capa_1" xmlns="http://www.w3.org/2000/svg" xmlns:xlink="http://www.w3.org/1999/xlink" x="0px" y="0px"
	 viewBox="0 0 200 200" style="enable-background:new 0 0 200 200;" xml:space="preserve">
<g>
	<path d="M139.1,68.2L139.1,68.2h-18.5v-7.7c0-6.2-4.6-10.8-10.4-11.5h-0.4H90.3c-6.2,0-11.5,5-11.5,11.5v7.7H61
		c-6.2,0-11.5,5-11.5,11.5v48.1c0,5.8,4.2,10.4,9.6,11.2c1.2,5.8,5.8,10,11.5,10c5.8,0,10.4-4.2,11.2-9.6h35.4
		c0.8,5.4,5.4,9.6,11.2,9.6c5.8,0,10.4-4.2,11.2-9.6c5.4-0.8,9.6-5.4,9.6-11.2V79.8C149.9,73.6,145.3,69,139.1,68.2z M72.6,135.9
		V72.1h30v15.4h-3.1c-0.4,0-1.2,0.4-1.2,0.4l-9.6,9.6c-0.4,0.4-0.4,0.8-0.4,1.2v28.8c0,1.2,0.8,1.9,1.9,1.9h28.8
		c1.2,0,1.9-0.8,1.9-1.9V99c0-0.4-0.4-1.2-0.4-1.2l-9.6-9.6c-0.8-0.4-1.2-0.8-1.5-0.8h-3.1V72.1h20.4v63.8H72.6z M104.5,100.9
		c1.5,0,3.1,1.2,3.1,3.1c0,1.9-1.2,2.7-3.1,2.7c-1.9,0-3.1-1.2-3.1-3.1C101.4,101.7,103,100.9,104.5,100.9z M102.6,97.5
		c-2.7,0.8-5,3.5-5,6.5c0,3.5,3.1,6.5,6.5,6.5c3.5,0,6.5-3.1,6.5-6.5c0-3.1-1.9-5.4-5-6.5v-6.2h2.3l8.5,8.5v26.2H91V99.4l8.5-8.5
		h2.3v6.5H102.6z M117.2,60.5v7.7h-10.8V52.5h3.1C113.7,52.5,117.2,55.9,117.2,60.5z M82.2,60.5c0-4.2,3.5-7.7,7.7-7.7h12.7v15.4
		H82.2C82.2,68.2,82.2,60.5,82.2,60.5z M53.4,127.8V79.8c0-4.2,3.5-7.7,7.7-7.7h7.7v63.8H61C56.8,135.9,53.4,132.1,53.4,127.8z
		 M70.7,145.5c-3.8,0-6.9-2.7-7.7-6.2h15C77.6,142.8,74.5,145.5,70.7,145.5z M128.7,145.5c-3.8,0-6.9-2.7-7.7-6.2h15.4
		C135.3,142.8,132.2,145.5,128.7,145.5z M138.4,135.9h-7.7V72.1h7.7c4.2,0,7.7,3.5,7.7,7.7v48.1C146,132.1,142.6,135.9,138.4,135.9z
		"/>
</g>
</svg>
