<?xml version="1.0" encoding="utf-8"?>
<!-- Generator: Adobe Illustrator 19.2.1, SVG Export Plug-In . SVG Version: 6.00 Build 0)  -->
<svg version="1.1" id="Capa_1" xmlns="http://www.w3.org/2000/svg" xmlns:xlink="http://www.w3.org/1999/xlink" x="0px" y="0px"
	 viewBox="0 0 200 200" style="enable-background:new 0 0 200 200;" xml:space="preserve">
<style type="text/css">
	.st0{fill:#231F20;}
</style>
<g>
	<g id="Twitter_13_">
		<path id="Big_Icon_13_" class="st0" d="M158.8,60.5c-4,2-8.4,3-13.4,3.5l0,0c5-3,9.4-7.9,11.4-13.4c-1.5,0.5-8.4,5-15.3,6.4
			c-4.5-5-11.4-7.9-18.8-7.9c-15.3,0-24.8,12.9-24.8,24.8c0,1.5,0.5,5,0.5,5c-20.3-0.5-39.1-10.4-51-25.2
			c-8.4,15.3,0.5,29.2,6.4,34.2c-3.5,0-6.9-0.5-9.9-2c0.5,11.9,9.4,21.8,20.3,24.3c-4.5,1.5-9.9,0-11.9,0c3,9.9,12.9,17.8,23.3,17.8
			C58.8,140.7,41,139.2,41,139.2c10.4,6.4,23.3,9.9,36.1,9.9c49-0.5,73.8-44.1,69.8-74.3C151.9,69.4,156.8,65.4,158.8,60.5z"/>
	</g>
</g>
</svg>
