<?xml version="1.0" encoding="utf-8"?>
<!-- Generator: Adobe Illustrator 19.2.1, SVG Export Plug-In . SVG Version: 6.00 Build 0)  -->
<svg version="1.1" id="Capa_1" xmlns="http://www.w3.org/2000/svg" xmlns:xlink="http://www.w3.org/1999/xlink" x="0px" y="0px"
	 viewBox="0 0 200 200" style="enable-background:new 0 0 200 200;" xml:space="preserve">
<style type="text/css">
	.st0{fill:#231F20;}
</style>
<g>
	<g id="Lozenge_2_">
		<g>
			<path class="st0" d="M169.5,70.7c0,0-1.4-9.2-5.7-14.2c-5.7-5.7-11.3-5.7-14.2-6.4c-19.1-1.4-49.6-1.4-49.6-1.4l0,0
				c0,0-29.8,0-49.6,1.4c-2.8,0-8.5,0.7-14.2,6.4c-4.3,4.3-5.7,14.2-5.7,14.2s-1.4,11.3-1.4,22.7v10.6c0,11.3,1.4,22.7,1.4,22.7
				s1.4,9.2,5.7,14.2c5.7,5.7,12.1,5.7,15.6,6.4c11.3,1.4,48.2,1.4,48.2,1.4s29.8,0,49.6-1.4c2.8,0,8.5-0.7,14.2-6.4
				c4.3-4.3,5.7-14.2,5.7-14.2s1.4-11.3,1.4-22.7V93.4C170.9,82.1,169.5,70.7,169.5,70.7z M85.8,117.5V77.1l39,19.9L85.8,117.5z"/>
		</g>
	</g>
</g>
</svg>
