<?xml version="1.0" encoding="utf-8"?>
<!-- Generator: Adobe Illustrator 20.0.0, SVG Export Plug-In . SVG Version: 6.00 Build 0)  -->
<svg version="1.1" id="Layer_1" xmlns="http://www.w3.org/2000/svg" xmlns:xlink="http://www.w3.org/1999/xlink" x="0px" y="0px"
	 viewBox="0 0 123.8 36.9" style="enable-background:new 0 0 123.8 36.9;" xml:space="preserve">
<style type="text/css">
	.st0{fill:#EA203F;}
</style>
<g>
	<path class="st0" d="M69.6,7.9c-0.2,0-0.4-0.1-0.6-0.1c-0.2-0.1-0.5-0.1-0.8-0.1c-1.7-0.1-3.2,0.1-4.3,0.9
		c-0.6,0.4-1.1,0.8-1.6,1.4c-0.1-0.2-0.2-0.3-0.3-0.5c-0.4-0.6-0.9-1.1-1.5-1.6c-0.3-0.2-0.7-0.2-0.9,0.1L58.4,9
		c-0.1,0.1-0.2,0.3-0.2,0.5c0,0.2,0.1,0.4,0.2,0.5c0.4,0.4,0.7,0.9,0.9,1.5c0.2,0.6,0.3,1.3,0.3,2.2V26c0,0.4,0.3,0.7,0.7,0.7h2
		c0.4,0,0.7-0.3,0.7-0.7V13.7c0.5-0.9,1.2-1.6,1.8-2.1c0.7-0.5,1.4-0.8,2.2-0.8c0.3,0,0.6,0,0.8,0c0.2,0,0.5,0.1,0.7,0.1
		c0.3,0.1,0.5,0.1,0.8,0.1c0.2,0,0.4,0,0.6-0.2c0.2-0.1,0.2-0.3,0.2-0.5V8.6C70.1,8.2,69.9,7.9,69.6,7.9z"/>
	<path class="st0" d="M123.2,13.5c-0.4-1.2-0.9-2.2-1.6-3.1c-0.7-0.9-1.6-1.6-2.6-2.1c-1-0.5-2.2-0.8-3.6-0.8
		c-1.4,0-2.7,0.3-3.8,0.9c-0.6,0.4-1.2,0.8-1.7,1.3c-0.1-0.1-0.2-0.3-0.2-0.4c-0.3-0.6-0.8-1.1-1.4-1.5c-0.3-0.2-0.7-0.2-1,0.1
		L106.1,9c-0.1,0.1-0.2,0.3-0.2,0.5s0.1,0.4,0.2,0.5c0.4,0.4,0.7,0.9,0.9,1.5c0.2,0.6,0.3,1.3,0.3,2.2v15.5c0,1.2-0.7,4-5.5,4.3
		c-0.4,0-0.7,0.3-0.7,0.7l0,1.9c0,0.2,0.1,0.4,0.2,0.5c0.1,0.1,0.3,0.2,0.5,0.2c2.9-0.1,5.1-0.9,6.7-2.5c1.7-1.8,2.1-3.8,2.1-4.9
		v-2.6c0.4,0,0.8,0.1,1.2,0.1c0.8,0.1,1.7,0.1,2.7,0.1c1.4,0,2.6-0.3,3.7-0.8c1.1-0.5,2.1-1.2,2.9-2.1c0.8-0.9,1.4-1.9,1.8-3.1
		c0.4-1.2,0.6-2.5,0.6-3.8C123.8,15.9,123.6,14.7,123.2,13.5z M120.3,17.3c0,1-0.1,1.9-0.4,2.7c-0.3,0.8-0.7,1.5-1.1,2
		c-0.5,0.5-1.1,1-1.8,1.3c-0.7,0.3-1.4,0.5-2.3,0.5c-1,0-1.8,0-2.6-0.1c-0.5,0-0.9-0.1-1.2-0.1l0-8.9c0.1-0.6,0.2-1.2,0.5-1.6
		c0.3-0.5,0.7-0.9,1.1-1.2c0.4-0.3,0.9-0.6,1.4-0.7c1.3-0.4,2.7-0.3,3.6,0.3c0.6,0.4,1.1,0.8,1.5,1.4c0.4,0.6,0.7,1.3,1,2.1
		C120.1,15.6,120.3,16.5,120.3,17.3z"/>
	<path class="st0" d="M53.7,21.6c-0.3-0.3-0.7-0.3-1.1-0.1c-2.5,2-5.3,2.7-7.9,1.7c-1.4-0.5-2.2-1.7-2.6-2.7
		c3.3-0.3,12.2-1.4,12.4-6.7c0.1-1.9-0.6-3.5-1.9-4.6c-1.9-1.6-4.7-1.9-6.5-1.6c-4.9,0.8-8,4.4-8.2,9.5c-0.1,3.6,1.5,7.9,5.5,9.4
		c1.2,0.5,2.5,0.7,3.7,0.7c2.7,0,5.4-1,7.7-3c0.2-0.1,0.2-0.3,0.3-0.5c0-0.2,0-0.4-0.2-0.5L53.7,21.6z M51,13.6
		c-0.1,1.9-5.4,3.2-9.4,3.5c0.2-3.3,2.1-5.6,5.2-6.1c0.3,0,0.5-0.1,0.8-0.1c1.1,0,2.1,0.3,2.7,0.8C50.8,12.1,51.1,12.7,51,13.6z"/>
	<path class="st0" d="M30.8,0c-5.3,0.2-6.4,4.5-6.4,6.1v3.2h-9.1c-1.6-1.1-3.6-1.8-5.6-1.8C4.4,7.6,0,11.9,0,17.3
		c0,5.4,4.4,9.8,9.8,9.8s9.8-4.4,9.8-9.8c0-1.6-0.4-3.1-1.1-4.5h6l0,16.7c0,0.6-0.3,3.9-5.4,4c-0.2,0-0.4,0.1-0.5,0.2
		c-0.1,0.1-0.2,0.3-0.2,0.5l0,1.9c0,0.2,0.1,0.4,0.2,0.5c0.1,0.1,0.3,0.2,0.5,0.2c2.9-0.1,5.2-0.9,6.7-2.5c1.7-1.7,2-3.8,2-4.6
		l0-0.1l0-9.4l5.9,0.1c0.4,0,0.7-0.3,0.7-0.7l0-1.9c0-0.2-0.1-0.4-0.2-0.5c-0.1-0.1-0.3-0.2-0.5-0.2L27.9,17v-4.2h3
		c2,0,3.6-0.7,4.8-1.9C36.8,9.7,37.4,8,37.4,6C37.4,3.1,35.1,0.1,30.8,0z M33.9,6.3c0,0.9-0.3,1.6-0.8,2.2c-0.5,0.5-1.3,0.8-2.2,0.8
		c0,0,0,0,0,0h-3V6.1c0-0.3,0.1-2.5,3-2.7c0,0,0,0,0,0c0.9,0,1.7,0.3,2.2,0.8C33.6,4.8,33.9,5.5,33.9,6.3z M9.8,23.6
		c-3.5,0-6.3-2.8-6.3-6.3S6.3,11,9.8,11s6.3,2.8,6.3,6.3S13.2,23.6,9.8,23.6z"/>
	<path class="st0" d="M104,17.3c0-5.4-4.4-9.8-9.8-9.8c-5.4,0-9.8,4.4-9.8,9.8c0,1.3,0.2,2.5,0.7,3.7c-0.2,0.2-0.4,0.4-0.5,0.5
		c-0.3,0.3-3,1.5-3.5,1.7c-0.4,0.2-0.8,0.3-1.3,0.4c-0.8,0.2-1.4,0.2-2,0c-0.2-0.1-0.4-0.2-0.6-0.4c-0.2-0.2-0.3-0.5-0.4-0.8
		c-0.1-0.4-0.2-0.9-0.2-1.5v-9.7h4.9c0.4,0,0.7-0.3,0.7-0.7V8.6c0-0.4-0.3-0.7-0.7-0.7h-4.9c0-0.4,0-0.7-0.1-1
		c-0.1-0.5-0.2-1.1-0.4-1.6c-0.2-0.5-0.4-1-0.7-1.5c-0.3-0.5-0.7-0.9-1.3-1.3c-0.3-0.2-0.7-0.2-0.9,0.1l-1.2,1.2
		C72.1,3.9,72,4.1,72,4.3c0,0.2,0.1,0.4,0.2,0.5c0.4,0.4,0.7,0.9,0.9,1.5c0.2,0.6,0.3,1.3,0.3,2.2V21c0,1.1,0.1,2,0.4,2.8
		c0.3,0.8,0.6,1.4,1.1,1.9c0.5,0.5,1,0.8,1.7,1.1c1.2,0.4,2.6,0.4,3.9,0.1c0.7-0.2,1.3-0.4,1.9-0.6c0.3-0.1,3.5-1.8,4.5-2.5
		c1.9,2.2,4.5,3.4,7.4,3.4C99.7,27.1,104,22.7,104,17.3z M100.6,17.3c0,3.5-2.8,6.3-6.3,6.3c-3.5,0-6.3-2.8-6.3-6.3s2.8-6.3,6.3-6.3
		C97.8,11,100.6,13.8,100.6,17.3z"/>
</g>
</svg>
