<?xml version="1.0" encoding="utf-8"?>
<!-- Generator: Adobe Illustrator 16.0.0, SVG Export Plug-In . SVG Version: 6.00 Build 0)  -->
<!DOCTYPE svg PUBLIC "-//W3C//DTD SVG 1.1//EN" "http://www.w3.org/Graphics/SVG/1.1/DTD/svg11.dtd">
<svg version="1.1" id="Layer_1" xmlns="http://www.w3.org/2000/svg" xmlns:xlink="http://www.w3.org/1999/xlink" x="0px" y="0px"
	 width="416.542px" height="158.646px" viewBox="0 0 416.542 158.646" enable-background="new 0 0 416.542 158.646"
	 xml:space="preserve">
<g>
	<g>
		<path fill="#535353" d="M115.553,92.125c0-1.662,0.094-3.599,0.284-5.809c0.188-2.21,0.444-4.542,0.765-6.998
			c0.32-2.456,0.699-4.958,1.133-7.508c0.434-2.55,0.897-4.978,1.389-7.282c0.49-2.304,0.982-4.42,1.473-6.347
			c0.49-1.927,0.982-3.514,1.474-4.76c0.302-0.83,0.604-1.492,0.906-1.983c0.302-0.49,0.652-0.878,1.048-1.162
			c0.397-0.283,0.887-0.472,1.474-0.566c0.585-0.094,1.312-0.142,2.182-0.142c0.982,0,1.747,0.048,2.295,0.142
			c0.547,0.094,0.954,0.321,1.218,0.68c0.264,0.36,0.425,0.878,0.482,1.559c0.057,0.68,0.085,1.606,0.085,2.776
			c0,1.398,0,3.088,0,5.072s0.037,3.938,0.113,5.865h0.624c0.755-1.51,1.605-3.202,2.55-5.072c0.944-1.87,2.04-3.617,3.287-5.242
			c1.247-1.624,2.664-2.994,4.25-4.108c1.587-1.114,3.419-1.671,5.497-1.671c0.717,0,1.417,0.123,2.097,0.368
			c0.68,0.246,1.275,0.595,1.785,1.048c0.51,0.453,0.916,1.011,1.218,1.671c0.302,0.661,0.454,1.408,0.454,2.239
			c0,0.643-0.095,1.539-0.283,2.691c-0.19,1.153-0.397,2.361-0.624,3.627c-0.227,1.266-0.435,2.493-0.624,3.683
			c-0.189,1.19-0.283,2.182-0.283,2.975c0,1.36,0.132,2.493,0.396,3.4c0.264,0.907,0.614,1.635,1.049,2.182
			c0.434,0.548,0.925,0.935,1.473,1.162c0.547,0.227,1.124,0.34,1.729,0.34c1.7,0,3.457-0.377,5.27-1.133
			c1.813-0.756,3.476-1.606,4.986-2.55c1.776-1.095,3.514-2.342,5.213-3.74l-0.85,13.26c-0.983,0.642-2.097,1.359-3.344,2.153
			c-1.247,0.793-2.578,1.539-3.995,2.238c-1.417,0.698-2.89,1.284-4.42,1.757c-1.53,0.472-3.088,0.708-4.675,0.708
			c-2.833,0-5.12-0.576-6.857-1.729c-1.738-1.152-3.117-2.663-4.137-4.533s-1.776-3.967-2.267-6.29
			c-0.491-2.323-0.888-4.675-1.19-7.055h-0.907l-10.144,28.277c-0.529,1.474-1.029,2.691-1.501,3.655
			c-0.473,0.963-0.955,1.747-1.445,2.352c-0.491,0.604-1.02,1.029-1.587,1.275c-0.566,0.245-1.19,0.368-1.87,0.368
			c-1.55,0-2.796-0.331-3.74-0.992c-0.945-0.661-1.672-1.549-2.182-2.663c-0.51-1.114-0.85-2.38-1.02-3.797
			C115.638,95.1,115.553,93.636,115.553,92.125z"/>
		<path fill="#535353" d="M183.667,103.969c-3.551,0-6.659-0.643-9.322-1.927c-2.664-1.284-4.883-3.013-6.659-5.186
			c-1.776-2.172-3.108-4.684-3.995-7.536c-0.888-2.853-1.332-5.847-1.332-8.981c0-2.116,0.207-4.354,0.624-6.715
			c0.416-2.36,1.048-4.675,1.898-6.942c0.85-2.267,1.917-4.429,3.202-6.488c1.284-2.059,2.785-3.873,4.505-5.44
			c1.719-1.567,3.646-2.813,5.78-3.74c2.133-0.926,4.505-1.388,7.111-1.388c2.116,0,4.08,0.34,5.894,1.02
			c1.813,0.68,3.391,1.635,4.731,2.862c1.341,1.228,2.389,2.711,3.146,4.449c0.755,1.737,1.133,3.683,1.133,5.836
			c0,2.343-0.576,4.685-1.729,7.027c-1.153,2.343-2.749,4.553-4.789,6.63c-2.04,2.078-4.468,3.929-7.282,5.554
			c-2.814,1.624-5.865,2.89-9.151,3.797c0.566,1.02,1.124,1.869,1.671,2.55c0.547,0.68,1.105,1.209,1.672,1.587
			c0.566,0.377,1.162,0.642,1.785,0.793c0.623,0.151,1.294,0.227,2.012,0.227c2.267,0,4.655-0.453,7.168-1.36
			c2.512-0.906,4.958-2.04,7.338-3.399c2.38-1.36,4.627-2.843,6.744-4.448c2.116-1.605,3.91-3.126,5.383-4.562l7.31,7.593
			c-3.324,3.438-6.856,6.479-10.596,9.123c-1.625,1.134-3.372,2.248-5.242,3.344s-3.834,2.068-5.894,2.918
			c-2.06,0.851-4.193,1.53-6.403,2.04C188.172,103.714,185.934,103.969,183.667,103.969z M176.13,77.335
			c1.36,0,2.842-0.349,4.449-1.048c1.605-0.699,3.097-1.595,4.477-2.692c1.379-1.095,2.541-2.285,3.485-3.57
			c0.944-1.284,1.417-2.53,1.417-3.74c0-1.7-0.312-3.097-0.935-4.193c-0.624-1.096-1.389-1.644-2.295-1.644
			c-1.625,0-3.013,0.303-4.165,0.907c-1.153,0.604-2.117,1.388-2.89,2.352c-0.774,0.963-1.398,2.06-1.87,3.287
			c-0.473,1.228-0.831,2.465-1.077,3.712c-0.247,1.247-0.406,2.456-0.481,3.626C176.167,75.503,176.13,76.505,176.13,77.335z"/>
		<path fill="#535353" d="M228.263,103.969c-3.551,0-6.658-0.643-9.322-1.927c-2.663-1.284-4.883-3.013-6.658-5.186
			c-1.775-2.172-3.107-4.684-3.994-7.536c-0.888-2.853-1.332-5.847-1.332-8.981c0-2.116,0.207-4.354,0.624-6.715
			c0.416-2.36,1.048-4.675,1.898-6.942c0.85-2.267,1.916-4.429,3.2-6.488c1.285-2.059,2.786-3.873,4.506-5.44
			c1.719-1.567,3.646-2.813,5.779-3.74c2.135-0.926,4.506-1.388,7.112-1.388c2.115,0,4.08,0.34,5.894,1.02
			c1.812,0.68,3.391,1.635,4.731,2.862c1.341,1.228,2.39,2.711,3.145,4.449c0.756,1.737,1.134,3.683,1.134,5.836
			c0,2.343-0.576,4.685-1.729,7.027c-1.152,2.343-2.748,4.553-4.788,6.63c-2.04,2.078-4.468,3.929-7.282,5.554
			c-2.814,1.624-5.865,2.89-9.151,3.797c0.566,1.02,1.124,1.869,1.672,2.55c0.548,0.68,1.104,1.209,1.671,1.587
			c0.567,0.377,1.162,0.642,1.785,0.793c0.624,0.151,1.294,0.227,2.012,0.227c2.267,0,4.656-0.453,7.169-1.36
			c2.512-0.906,4.958-2.04,7.338-3.399c2.38-1.36,4.628-2.843,6.743-4.448c2.116-1.605,3.91-3.126,5.384-4.562l7.311,7.593
			c-3.325,3.438-6.857,6.479-10.597,9.123c-1.625,1.134-3.372,2.248-5.242,3.344s-3.835,2.068-5.894,2.918
			c-2.059,0.851-4.193,1.53-6.403,2.04C232.768,103.714,230.53,103.969,228.263,103.969z M220.726,77.335
			c1.36,0,2.843-0.349,4.448-1.048c1.606-0.699,3.099-1.595,4.478-2.692c1.379-1.095,2.54-2.285,3.484-3.57
			c0.944-1.284,1.417-2.53,1.417-3.74c0-1.7-0.312-3.097-0.936-4.193c-0.623-1.096-1.388-1.644-2.295-1.644
			c-1.624,0-3.013,0.303-4.165,0.907c-1.152,0.604-2.115,1.388-2.89,2.352s-1.397,2.06-1.87,3.287
			c-0.473,1.228-0.831,2.465-1.076,3.712c-0.246,1.247-0.406,2.456-0.482,3.626C220.764,75.503,220.726,76.505,220.726,77.335z"/>
		<path fill="#535353" d="M253.707,92.125c0-2.493,0.151-5.374,0.453-8.642c0.303-3.268,0.681-6.592,1.134-9.974
			c0.453-3.38,0.963-6.639,1.53-9.775c0.566-3.136,1.114-5.817,1.643-8.047c0.416-1.737,1.219-3.192,2.408-4.363
			c1.19-1.17,2.806-1.756,4.846-1.756s3.456,0.623,4.25,1.87c0.793,1.247,1.189,2.91,1.189,4.987c0,0.567-0.057,1.332-0.17,2.295
			s-0.255,2.021-0.425,3.173c-0.17,1.153-0.35,2.343-0.538,3.57c-0.189,1.228-0.368,2.361-0.538,3.4
			c-0.17,1.04-0.312,1.946-0.426,2.72c-0.113,0.774-0.17,1.294-0.17,1.558h1.134c0.227-0.416,0.586-1.085,1.076-2.012
			c0.491-0.925,1.059-1.992,1.7-3.202c0.643-1.209,1.332-2.484,2.068-3.825c0.737-1.34,1.427-2.625,2.068-3.853
			c0.643-1.227,1.228-2.314,1.757-3.258c0.529-0.944,0.926-1.644,1.19-2.097c1.209-2.04,2.587-3.437,4.137-4.193
			c1.549-0.756,3.268-1.133,5.156-1.133s3.391,0.793,4.505,2.38c1.114,1.586,1.672,3.778,1.672,6.573
			c0,0.417-0.085,1.114-0.255,2.097c-0.17,0.983-0.388,2.153-0.651,3.513c-0.265,1.36-0.558,2.853-0.879,4.477
			c-0.321,1.625-0.613,3.287-0.878,4.986c-0.265,1.7-0.481,3.381-0.652,5.043c-0.17,1.663-0.255,3.193-0.255,4.59
			c0,2.342,0.293,4.269,0.879,5.78c0.585,1.511,1.501,2.267,2.748,2.267c0.566,0,1.219-0.17,1.955-0.511
			c0.736-0.34,1.53-0.783,2.38-1.331c0.851-0.548,1.719-1.181,2.606-1.898s1.767-1.454,2.636-2.21
			c2.002-1.775,4.099-3.778,6.29-6.007l0.963,12.693l-2.833,2.153c-1.549,1.171-3.126,2.343-4.731,3.514
			c-1.606,1.171-3.277,2.22-5.016,3.145c-1.737,0.926-3.551,1.682-5.44,2.267c-1.889,0.586-3.872,0.879-5.949,0.879
			c-2.078,0-3.825-1.502-5.242-4.505c-1.417-3.004-2.125-7.396-2.125-13.176c0-2.267,0.151-4.713,0.453-7.338
			c0.303-2.626,0.681-5.449,1.134-8.472h-0.907L266.74,99.945c-0.755,1.549-1.605,2.606-2.55,3.173
			c-0.944,0.567-2.04,0.851-3.286,0.851c-1.55,0-2.796-0.331-3.74-0.992s-1.672-1.549-2.182-2.663
			c-0.511-1.114-0.851-2.38-1.021-3.797C253.792,95.1,253.707,93.636,253.707,92.125z"/>
		<path fill="#535353" d="M304.423,82.208c2.116-1.812,3.835-3.323,5.157-4.533c1.322-1.208,2.455-2.313,3.399-3.315
			c0.945-1,1.805-2.012,2.579-3.032s1.69-2.229,2.748-3.626c1.058-1.397,2.342-3.107,3.854-5.128
			c1.511-2.021,3.476-4.542,5.894-7.565c0.491-0.68,1.039-1.34,1.643-1.983c0.604-0.642,1.275-1.218,2.012-1.729
			c0.737-0.51,1.549-0.925,2.438-1.247c0.888-0.32,1.879-0.481,2.975-0.481c1.813,0,3.211,0.198,4.193,0.595s1.7,0.878,2.153,1.445
			c0.453,0.567,0.718,1.162,0.793,1.785c0.076,0.624,0.114,1.162,0.114,1.615c0,0.907-0.359,1.908-1.077,3.003
			c-0.718,1.096-1.511,2.153-2.38,3.173s-1.69,1.955-2.465,2.805s-1.219,1.483-1.332,1.898c0,1.171,0.085,2.238,0.255,3.202
			s0.396,1.908,0.68,2.833c0.284,0.926,0.576,1.908,0.879,2.947c0.302,1.04,0.595,2.238,0.878,3.598s0.511,2.928,0.681,4.704
			s0.255,3.872,0.255,6.29c1.359-0.907,2.823-1.729,4.392-2.465c1.567-0.737,3.201-1.502,4.901-2.295
			c1.7-0.794,3.447-1.672,5.242-2.636c1.794-0.963,3.598-2.125,5.411-3.485l0.057,12.694c-2.342,1.813-5.053,3.513-8.132,5.1
			c-3.078,1.587-6.309,2.984-9.689,4.193s-6.8,2.163-10.257,2.862c-3.457,0.698-6.734,1.048-9.832,1.048
			c-2.229,0-4.307-0.208-6.233-0.623c-1.927-0.416-3.617-1.067-5.071-1.955c-1.455-0.888-2.636-2.05-3.542-3.485
			s-1.454-3.173-1.644-5.213c-0.528,0.113-1.048,0.188-1.558,0.227c-0.511,0.037-1.011,0.057-1.502,0.057
			c-0.604,0-1.171-0.02-1.7-0.057c-0.529-0.038-0.982-0.18-1.36-0.425c-0.377-0.246-0.68-0.643-0.906-1.19s-0.34-1.332-0.34-2.352
			c0-0.907,0.227-1.747,0.68-2.521s0.982-1.464,1.587-2.068s1.209-1.134,1.813-1.587S304.122,82.472,304.423,82.208z
			 M311.677,89.462c0.453,0,0.954,0.283,1.502,0.85c0.547,0.567,1.18,1.19,1.897,1.87c0.718,0.681,1.55,1.304,2.494,1.87
			s2.021,0.85,3.229,0.85c1.474,0,2.691-0.245,3.655-0.736c0.963-0.491,1.729-1.143,2.295-1.955s0.964-1.757,1.19-2.833
			c0.227-1.077,0.34-2.201,0.34-3.372c0-1.02-0.066-2.059-0.198-3.116c-0.133-1.058-0.303-2.068-0.511-3.032
			c-0.207-0.963-0.434-1.87-0.68-2.72c-0.245-0.85-0.463-1.577-0.651-2.182L311.677,89.462z"/>
		<path fill="#535353" d="M384.268,60.448c0.302-1.284,0.84-2.427,1.614-3.428c0.774-1,1.663-1.842,2.664-2.522
			c1.001-0.68,2.049-1.19,3.145-1.53c1.096-0.34,2.135-0.51,3.117-0.51c1.171,0,2.153,0.255,2.946,0.765s1.19,1.313,1.19,2.408
			c0,0.34-0.057,0.737-0.17,1.19c-0.228,0.983-0.511,2.324-0.851,4.023c-0.34,1.7-0.708,3.627-1.104,5.78
			c-0.397,2.153-0.803,4.429-1.219,6.828c-0.415,2.4-0.812,4.789-1.189,7.169c-0.945,5.591-1.908,11.598-2.891,18.02
			c1.134-0.642,2.361-1.436,3.684-2.38s2.796-2.21,4.42-3.797c1.624-1.586,3.438-3.579,5.44-5.979
			c2.002-2.398,4.25-5.393,6.743-8.981l2.72,12.58c-0.68,1.171-1.559,2.371-2.635,3.599c-1.077,1.228-2.267,2.455-3.57,3.684
			c-1.303,1.228-2.663,2.417-4.08,3.569c-1.416,1.152-2.805,2.238-4.165,3.259c-3.211,2.418-6.668,4.76-10.37,7.026
			c-0.718,4.043-1.567,7.98-2.55,11.815c-0.982,3.834-2.144,7.423-3.485,10.767c-1.341,3.344-2.871,6.413-4.59,9.209
			c-1.719,2.795-3.664,5.194-5.837,7.196c-2.172,2.002-4.6,3.561-7.281,4.675c-2.683,1.114-5.648,1.672-8.896,1.672
			c-1.285,0-2.673-0.132-4.165-0.396s-2.871-0.794-4.137-1.587s-2.314-1.927-3.146-3.4c-0.829-1.473-1.246-3.438-1.246-5.893
			c0-1.7,0.434-3.617,1.303-5.752c0.871-2.135,2.061-4.383,3.57-6.743c1.511-2.361,3.306-4.817,5.383-7.367
			c2.078-2.55,4.336-5.091,6.772-7.622c2.437-2.53,4.986-5.024,7.649-7.479c2.664-2.456,5.355-4.798,8.075-7.027l1.53-5.27
			c-2.04,1.813-4.165,3.277-6.375,4.392s-4.354,1.672-6.432,1.672c-1.813,0-3.58-0.368-5.299-1.105
			c-1.719-0.736-3.239-1.794-4.562-3.173s-2.38-3.061-3.173-5.044c-0.794-1.983-1.19-4.222-1.19-6.715
			c0-3.286,0.16-6.309,0.481-9.066c0.321-2.757,0.784-5.384,1.389-7.877s1.36-4.902,2.267-7.225s1.945-4.675,3.116-7.055
			c0.869-1.7,2.116-2.994,3.74-3.881c1.625-0.887,3.211-1.332,4.761-1.332c1.321,0,2.455,0.332,3.399,0.992
			c0.944,0.661,1.417,1.691,1.417,3.088c0,0.417-0.048,0.87-0.142,1.36c-0.095,0.491-0.255,1.02-0.481,1.586
			c-0.681,1.738-1.351,3.788-2.012,6.148c-0.661,2.361-1.247,4.78-1.757,7.253c-0.51,2.475-0.916,4.902-1.219,7.282
			c-0.302,2.38-0.453,4.477-0.453,6.29c0,0.944,0.066,1.86,0.198,2.748s0.368,1.682,0.708,2.38c0.341,0.699,0.794,1.266,1.36,1.7
			s1.284,0.652,2.153,0.652c1.397,0,2.663-0.604,3.797-1.813c1.133-1.209,2.115-2.664,2.946-4.363
			c0.831-1.7,1.502-3.457,2.012-5.271c0.511-1.813,0.841-3.324,0.992-4.533L384.268,60.448z M357.748,145.676
			c1.587,0,3.088-0.463,4.505-1.389s2.72-2.144,3.91-3.655c1.19-1.511,2.276-3.229,3.259-5.156c0.981-1.927,1.851-3.9,2.606-5.922
			c0.755-2.021,1.397-3.995,1.927-5.922c0.528-1.927,0.944-3.646,1.246-5.156c-1.473,0.982-2.975,2.153-4.505,3.513
			c-1.53,1.36-3.022,2.824-4.477,4.393c-1.454,1.567-2.833,3.183-4.137,4.845s-2.446,3.258-3.429,4.788
			c-0.981,1.53-1.756,2.956-2.323,4.278c-0.566,1.322-0.85,2.418-0.85,3.287C355.481,144.976,356.237,145.676,357.748,145.676z"/>
	</g>
	<g>
		<path fill="#FF313F" d="M55.171,52.679c1.034-5.569,2.284-11.095,3.713-16.379c1.072-3.963,2.273-8.477,3.583-11.477H14.278
			c-5.047,0-9.507,4.253-9.507,9.301v27.699h48.795C54.063,58.823,54.59,55.799,55.171,52.679z"/>
		<path fill="#FF313F" d="M49.16,116.363c-0.182-2.646-0.274-5.245-0.274-7.722c0-0.209,0.046-1.48,0.15-3.816
			c0.097-2.189,0.278-5.352,0.553-9.007c0.151-2.018,0.341-2.995,0.558-6.995H4.771v31.796c0,5.047,4.46,9.204,9.507,9.204h37.093
			c-0.482-2-0.915-3.497-1.231-5.311C49.679,121.878,49.349,119.113,49.16,116.363z"/>
		<path fill="#FF313F" d="M104.519,45.173c-1.801,3.719-3.791,7.467-5.914,11.144c-1.4,2.426-2.867,4.855-4.38,7.258
			c1.504-0.54,2.792-1.106,3.845-1.694c1.729-0.937,3.073-1.958,4.227-3.087l7.475-7.38v-17.29c0-0.444,0.027-0.877-0.034-1.303
			c-0.18,0.493-0.318,0.981-0.51,1.48C107.881,37.793,106.321,41.45,104.519,45.173z"/>
		<path fill="#FF313F" d="M95.317,90.668c0.77,2.079,1.484,4.328,2.131,6.712c0.958,3.532,1.443,7.149,1.443,10.752
			c0,0.504-0.029,1.18-0.171,2.84c-0.108,1.263-0.283,2.725-0.534,4.477c-0.252,1.767-0.61,3.728-1.063,5.829
			c-0.479,2.213-1.102,4.501-1.854,6.739c-0.202,0.599-0.448,1.807-0.673,1.807h6.176c5.047,0,8.998-4.157,8.998-9.204V85.76
			c-3,1.47-5.703,2.657-8.749,3.504C99.017,89.82,97.153,90.291,95.317,90.668z"/>
	</g>
	<path fill="#535353" d="M101.996,68.918c-1.964,1.096-4.383,2.088-7.253,2.975c-2.871,0.888-6.177,1.332-9.917,1.332
		c-0.378,0-0.7-0.047-0.963-0.142c-0.265-0.094-0.52-0.198-0.765-0.312c-0.247-0.113-0.52-0.217-0.822-0.312
		c-0.303-0.094-0.7-0.142-1.19-0.142c-0.417,0-0.813,0.057-1.19,0.17c-0.163,0.049-0.377,0.134-0.61,0.232v-0.991h-0.535
		c2.188-2.82,4.338-5.813,6.443-9.016c2.247-3.419,4.392-6.894,6.432-10.427c2.04-3.532,3.918-7.074,5.638-10.625
		c1.719-3.55,3.21-6.97,4.477-10.257c1.266-3.287,2.247-6.375,2.947-9.265c0.699-2.89,1.048-5.449,1.048-7.678
		c0-2.456-0.388-4.524-1.162-6.205c-0.774-1.681-1.748-3.032-2.918-4.052c-1.171-1.02-2.465-1.757-3.882-2.21
		c-1.417-0.454-2.768-0.68-4.052-0.68c-3.25,0-6.233,0.983-8.954,2.947c-2.72,1.964-5.185,4.638-7.395,8.018
		c-2.21,3.381-4.203,7.33-5.978,11.844c-1.776,4.515-3.353,9.322-4.732,14.422c-1.379,5.1-2.57,10.342-3.57,15.725
		c-1.001,5.383-1.87,10.634-2.607,15.753c-0.083,0.576-0.157,1.136-0.237,1.706H5.14v9.672h53.897
		c-0.118,1.074-0.231,2.139-0.335,3.186c-0.453,4.59-0.813,8.642-1.077,12.155c-0.264,3.513-0.444,6.327-0.538,8.443
		c-0.095,2.115-0.142,3.266-0.142,3.456c0,2.304,0.085,4.694,0.255,7.169c0.17,2.473,0.462,4.901,0.878,7.281
		c0.416,2.38,0.992,4.638,1.729,6.772c0.736,2.133,1.652,4.003,2.748,5.609c1.096,1.605,2.417,2.881,3.967,3.825
		c1.549,0.943,3.362,1.417,5.44,1.417c2.077,0,3.938-0.435,5.582-1.304c1.643-0.87,3.097-2.012,4.363-3.428
		c1.266-1.417,2.371-3.042,3.315-4.874c0.944-1.834,1.747-3.732,2.408-5.695c0.661-1.964,1.199-3.909,1.615-5.836
		c0.416-1.927,0.736-3.684,0.963-5.271c0.227-1.587,0.387-2.928,0.481-4.023c0.094-1.097,0.142-1.813,0.142-2.153
		c0-2.909-0.388-5.788-1.162-8.642c-0.774-2.853-1.635-5.431-2.578-7.735c-1.097-2.682-2.324-5.27-3.684-7.763
		c2.644-0.113,5.307-0.377,7.99-0.794c2.304-0.376,4.816-0.942,7.537-1.7c2.72-0.755,5.327-1.813,7.82-3.173l1.247-13.77
		C106.303,66.218,104.3,67.672,101.996,68.918z M76.496,53.476c0.263-2.437,0.717-5.261,1.36-8.472
		c0.642-3.21,1.586-6.885,2.833-11.022c1.247-4.137,2.965-8.925,5.156-14.365c0.717-1.851,1.53-3.239,2.437-4.165
		c0.907-0.926,2.229-1.389,3.967-1.389c0.982,0,1.756,0.463,2.323,1.389c0.566,0.926,0.85,2.389,0.85,4.392
		c0,1.436-0.595,3.533-1.785,6.29c-1.19,2.758-2.729,5.941-4.619,9.548c-1.89,3.608-4.004,7.518-6.347,11.73
		c-2.343,4.213-4.666,8.492-6.97,12.835C75.966,58.171,76.231,55.913,76.496,53.476z M78.791,115.867
		c-0.133,2.133-0.397,4.099-0.793,5.894c-0.396,1.793-0.983,3.277-1.757,4.448c-0.774,1.169-1.805,1.757-3.088,1.757
		c-0.416,0-0.821-0.255-1.218-0.766c-0.396-0.51-0.756-1.614-1.077-3.314c-0.321-1.7-0.586-4.193-0.793-7.48
		c-0.208-3.286-0.312-7.707-0.312-13.26c0-0.794,0.037-1.878,0.113-3.259c0.076-1.379,0.17-2.869,0.283-4.477
		c0.114-1.605,0.246-3.237,0.397-4.901c0.15-1.662,0.312-3.164,0.481-4.505c0.17-1.34,0.349-2.438,0.539-3.287
		c0.189-0.85,0.359-1.275,0.51-1.275c0.454,0,0.944,0.511,1.474,1.53c0.529,1.021,1.048,2.352,1.558,3.995
		c0.51,1.644,1,3.506,1.474,5.582c0.472,2.077,0.887,4.165,1.247,6.262c0.359,2.097,0.642,4.108,0.85,6.035
		c0.207,1.927,0.312,3.549,0.312,4.873C78.989,111.681,78.923,113.732,78.791,115.867z"/>
</g>
</svg>
