<?xml version="1.0" encoding="utf-8"?>
<!-- Generator: Adobe Illustrator 16.0.0, SVG Export Plug-In . SVG Version: 6.00 Build 0)  -->
<!DOCTYPE svg PUBLIC "-//W3C//DTD SVG 1.1//EN" "http://www.w3.org/Graphics/SVG/1.1/DTD/svg11.dtd">
<svg version="1.1" id="Layer_1" xmlns="http://www.w3.org/2000/svg" xmlns:xlink="http://www.w3.org/1999/xlink" x="0px" y="0px"
	 width="416.542px" height="158.646px" viewBox="0 0 416.542 158.646" enable-background="new 0 0 416.542 158.646"
	 xml:space="preserve">
<g>
	<path fill="#FF313F" d="M83.57,90.966c-1.998,0.556-3.923,1.024-5.751,1.398c0.766,2.069,1.478,4.31,2.122,6.682
		c0.953,3.518,1.437,7.118,1.437,10.705c0,0.501-0.029,1.173-0.17,2.827c-0.106,1.257-0.282,2.712-0.53,4.456
		c-0.252,1.758-0.608,3.778-1.059,5.87c-0.185,0.852-0.408,2.638-0.633,2.638H99.38c5.026,0,9.036-4.208,9.036-9.232V81.301
		l-15.398,5.82C90.011,88.76,86.853,90.054,83.57,90.966z"/>
	<path fill="#FF313F" d="M32.296,97.808c0.141-1.896,0.313-3.975,0.514-6.219c-0.774-0.193-1.564-0.4-2.363-0.624
		c-3.281-0.911-6.35-2.206-9.357-3.845L4.414,81.539v34.771c0,5.024,3.833,9.232,8.858,9.232h19.481
		c-0.406-3-0.711-5.003-0.885-7.529c-0.181-2.635-0.273-5.256-0.273-7.721c0-0.209,0.045-1.492,0.148-3.816
		C31.841,104.295,32.02,101.449,32.296,97.808z"/>
	<path fill="#FF313F" d="M36.076,64.932c0.539-3.375,1.133-6.812,1.777-10.27c1.028-5.544,2.272-11.022,3.695-16.283
		c1.445-5.344,3.125-10.739,4.99-15.48c0.28-0.71,0.58-1.356,0.871-2.356H13.272c-5.025,0-8.858,4.634-8.858,9.659v16.654
		l4.292,2.73C8.706,49.587,35.073,64.527,36.076,64.932z"/>
	<path fill="#FF313F" d="M99.378,20.542h-3.492c-0.209,3-0.521,3.472-0.94,5.206c-0.777,3.207-1.868,6.786-3.245,10.361
		c-1.34,3.477-2.929,7.188-4.722,10.894c-1.794,3.702-3.773,7.472-5.889,11.13c-1.393,2.414-2.854,4.852-4.361,7.242
		c1.499-0.538,2.749-1.092,3.797-1.678c1.633-0.885,24.887-10.532,27.887-12.287V30.202
		C108.414,25.177,104.404,20.542,99.378,20.542z"/>
	<path fill="#535353" d="M77.247,73.674C74.389,74.558,71.098,75,67.375,75c-0.377,0-0.698-0.047-0.959-0.141
		c-0.263-0.094-0.517-0.198-0.762-0.312c-0.246-0.112-0.517-0.216-0.818-0.31c-0.302-0.094-0.697-0.141-1.185-0.141
		c-0.415,0-0.81,0.057-1.184,0.169c-0.376,0.112-0.94,0.357-1.693,0.732l0.113-0.901c2.332-2.972,4.617-6.158,6.854-9.562
		c2.236-3.403,4.372-6.863,6.403-10.38c2.031-3.516,3.901-7.042,5.613-10.578c1.711-3.534,3.195-6.938,4.457-10.21
		c1.26-3.271,2.236-6.347,2.934-9.224c0.256-1.063,0.45-2.066,0.612-3.039c0.275-1.661,0.431-3.206,0.431-4.605
		c0-2.444-0.387-4.504-1.157-6.178c-0.771-1.673-1.741-3.019-2.905-4.034c-1.166-1.015-2.454-1.749-3.864-2.2
		c-1.41-0.451-2.756-0.677-4.034-0.677c-3.236,0-6.206,0.979-8.914,2.934c-2.708,1.956-5.162,4.617-7.362,7.983
		c-1.335,2.042-2.581,4.319-3.756,6.777c-0.761,1.593-1.501,3.247-2.195,5.013c-1.77,4.494-3.338,9.281-4.711,14.357
		c-1.375,5.076-2.559,10.295-3.554,15.654c-0.997,5.36-1.862,10.587-2.595,15.684c-0.146,1.009-0.281,2-0.415,2.987
		c-2.152-0.206-4.151-0.566-5.958-1.126c-2.858-0.883-5.346-1.869-7.301-2.961c-1.574-0.851-16.46-8.558-25.057-13.852v13.967
		c9.824,4.585,26.162,11.869,28.103,12.408c2.708,0.754,5.249,1.316,7.543,1.691c0.467,0.071,0.949,0.114,1.415,0.178
		c-0.041,0.4-0.078,0.809-0.117,1.205c-0.452,4.568-0.805,8.604-1.067,12.101c-0.263,3.498-0.441,6.3-0.534,8.406
		c-0.094,2.105-0.14,3.252-0.14,3.44c0,2.293,0.085,4.673,0.255,7.138c0.169,2.461,0.46,4.878,0.874,7.248
		c0.047,0.262,0.114,0.505,0.163,0.764c0.401,2.084,0.905,4.086,1.559,5.979c0.733,2.123,1.644,3.984,2.736,5.585
		c1.091,1.599,2.406,2.868,3.949,3.809c1.542,0.938,3.347,1.411,5.416,1.411c2.067,0,3.921-0.435,5.557-1.298
		c1.637-0.867,3.083-2.003,4.344-3.413c1.261-1.41,2.36-3.028,3.301-4.854c0.939-1.825,1.739-3.715,2.398-5.669
		c0.174-0.52,0.317-1.032,0.474-1.55c0.436-1.43,0.828-2.853,1.133-4.261c0.414-1.919,0.733-3.667,0.959-5.247
		c0.226-1.579,0.385-2.914,0.479-4.005c0.092-1.094,0.141-1.807,0.141-2.145c0-2.896-0.387-5.763-1.157-8.604
		c-0.771-2.839-1.628-5.406-2.566-7.7c-1.093-2.671-2.313-5.247-3.667-7.729c2.631-0.111,5.282-0.374,7.954-0.789
		c2.292-0.375,4.795-0.938,7.503-1.691c2.708-0.753,44.172-16.132,40.16-15.865c0,0,1.32-11.659,4.278-12.303
		c6.15-1.337-39.1,14.402-41.392,15.644C82.512,71.804,80.104,72.791,77.247,73.674z M59.082,55.34
		c0.261-2.426,0.713-5.236,1.354-8.434c0.64-3.196,1.58-6.854,2.821-10.973c1.241-4.118,2.952-8.886,5.134-14.302
		c0.074-0.188,0.15-0.35,0.225-0.527c0.659-1.57,1.39-2.79,2.2-3.618c0.903-0.921,2.219-1.382,3.949-1.382
		c0.978,0,1.749,0.46,2.313,1.382c0.487,0.798,0.75,2.021,0.818,3.618c0.011,0.25,0.028,0.484,0.028,0.754
		c0,1.43-0.593,3.518-1.777,6.262c-1.185,2.746-2.717,5.915-4.598,9.506c-1.882,3.592-3.987,7.484-6.319,11.677
		c-2.333,4.194-4.646,8.454-6.938,12.778C58.554,60.013,58.818,57.765,59.082,55.34z M61.366,117.452
		c-0.133,2.123-0.395,4.08-0.79,5.867c-0.168,0.757-0.375,1.441-0.61,2.089c-0.319,0.879-0.695,1.667-1.139,2.339
		c-0.771,1.165-1.797,1.75-3.074,1.75c-0.416,0-0.818-0.255-1.213-0.762c-0.395-0.509-0.753-1.608-1.071-3.301
		c-0.002-0.009-0.003-0.02-0.005-0.026c-0.317-1.693-0.58-4.163-0.785-7.421c-0.207-3.271-0.311-7.672-0.311-13.2
		c0-0.789,0.036-1.87,0.113-3.244c0.076-1.372,0.17-2.855,0.282-4.456c0.113-1.599,0.244-3.224,0.395-4.88
		c0.149-1.654,0.311-3.148,0.479-4.484c0.169-1.333,0.347-2.426,0.536-3.271c0.188-0.847,0.357-1.27,0.508-1.27
		c0.451,0,0.938,0.508,1.467,1.522c0.526,1.015,1.043,2.341,1.551,3.978c0.508,1.637,0.995,3.489,1.467,5.557
		c0.47,2.069,0.882,4.146,1.241,6.234c0.356,2.087,0.639,4.09,0.846,6.008c0.205,1.919,0.31,3.534,0.31,4.852
		C61.563,113.285,61.499,115.327,61.366,117.452z"/>
</g>
<g>
	<path fill="#535353" d="M115.698,91.564c0-1.655,0.094-3.582,0.282-5.782c0.188-2.201,0.442-4.522,0.762-6.967
		c0.32-2.445,0.696-4.937,1.128-7.476c0.432-2.538,0.894-4.955,1.382-7.249c0.489-2.293,0.978-4.399,1.467-6.317
		c0.489-1.918,0.978-3.498,1.466-4.739c0.301-0.827,0.602-1.485,0.903-1.975c0.3-0.488,0.649-0.875,1.043-1.156
		c0.395-0.282,0.884-0.47,1.466-0.564c0.583-0.093,1.308-0.141,2.172-0.141c0.978,0,1.74,0.047,2.285,0.141
		c0.546,0.095,0.95,0.32,1.213,0.678c0.263,0.357,0.423,0.874,0.479,1.551c0.057,0.677,0.084,1.599,0.084,2.764
		c0,1.393,0,3.074,0,5.049c0,1.976,0.038,3.921,0.113,5.839h0.621c0.752-1.503,1.599-3.187,2.539-5.049
		c0.94-1.86,2.031-3.601,3.271-5.218c1.241-1.617,2.652-2.979,4.231-4.09c1.58-1.109,3.404-1.664,5.473-1.664
		c0.714,0,1.41,0.122,2.087,0.366c0.677,0.245,1.27,0.592,1.777,1.044c0.507,0.451,0.912,1.007,1.212,1.664
		c0.301,0.658,0.452,1.401,0.452,2.228c0,0.642-0.094,1.533-0.282,2.681c-0.188,1.146-0.395,2.351-0.621,3.609
		c-0.226,1.26-0.433,2.482-0.621,3.667c-0.188,1.186-0.282,2.172-0.282,2.962c0,1.354,0.132,2.482,0.395,3.386
		c0.263,0.902,0.611,1.627,1.043,2.172c0.433,0.546,0.921,0.931,1.467,1.156c0.545,0.227,1.118,0.34,1.72,0.34
		c1.692,0,3.441-0.375,5.246-1.129c1.806-0.752,3.46-1.599,4.964-2.538c1.768-1.092,3.498-2.332,5.19-3.724l-0.846,13.201
		c-0.978,0.64-2.087,1.354-3.329,2.144c-1.241,0.789-2.567,1.532-3.978,2.229c-1.41,0.697-2.877,1.278-4.4,1.749
		c-1.523,0.472-3.074,0.705-4.654,0.705c-2.82,0-5.096-0.571-6.826-1.721c-1.73-1.146-3.103-2.651-4.118-4.514
		c-1.016-1.861-1.768-3.949-2.256-6.262c-0.489-2.313-0.884-4.655-1.185-7.024h-0.902L129.232,95.74
		c-0.526,1.467-1.024,2.68-1.495,3.638c-0.47,0.96-0.949,1.741-1.438,2.344c-0.489,0.601-1.015,1.022-1.58,1.269
		c-0.564,0.246-1.185,0.367-1.862,0.367c-1.542,0-2.783-0.33-3.723-0.987c-0.94-0.657-1.664-1.542-2.172-2.651
		c-0.508-1.107-0.846-2.369-1.016-3.779C115.782,94.526,115.698,93.069,115.698,91.564z"/>
	<path fill="#535353" d="M183.507,103.355c-3.535,0-6.628-0.641-9.28-1.919c-2.651-1.276-4.86-2.997-6.628-5.162
		c-1.768-2.162-3.093-4.661-3.977-7.503c-0.884-2.84-1.326-5.817-1.326-8.941c0-2.105,0.207-4.334,0.621-6.685
		s1.044-4.654,1.89-6.911c0.846-2.256,1.909-4.409,3.187-6.459c1.279-2.05,2.774-3.855,4.485-5.416
		c1.711-1.562,3.629-2.801,5.754-3.724c2.125-0.922,4.484-1.382,7.08-1.382c2.106,0,4.062,0.338,5.867,1.016
		c1.805,0.677,3.375,1.627,4.71,2.849c1.335,1.223,2.379,2.7,3.131,4.428c0.752,1.73,1.128,3.667,1.128,5.812
		c0,2.333-0.573,4.664-1.72,6.996c-1.147,2.333-2.736,4.532-4.767,6.6c-2.031,2.069-4.448,3.912-7.249,5.528
		c-2.802,1.617-5.839,2.877-9.111,3.778c0.563,1.018,1.118,1.862,1.664,2.539c0.545,0.678,1.1,1.206,1.664,1.58
		c0.564,0.376,1.157,0.642,1.777,0.789c0.621,0.15,1.288,0.228,2.003,0.228c2.256,0,4.635-0.452,7.136-1.354
		c2.501-0.901,4.937-2.03,7.306-3.385c2.37-1.354,4.607-2.828,6.713-4.428s3.892-3.112,5.358-4.542l7.279,7.56
		c-3.311,3.422-6.826,6.451-10.55,9.083c-1.617,1.128-3.357,2.237-5.219,3.328c-1.861,1.092-3.817,2.06-5.867,2.904
		c-2.05,0.847-4.175,1.522-6.375,2.031C187.992,103.1,185.764,103.355,183.507,103.355z M176.004,76.84
		c1.354,0,2.83-0.347,4.428-1.044c1.599-0.695,3.084-1.588,4.457-2.679c1.374-1.091,2.529-2.276,3.47-3.554
		c0.94-1.278,1.41-2.52,1.41-3.725c0-1.691-0.31-3.083-0.931-4.175c-0.621-1.091-1.382-1.636-2.285-1.636
		c-1.617,0-2.999,0.302-4.146,0.902c-1.147,0.602-2.106,1.382-2.877,2.342c-0.771,0.959-1.392,2.05-1.862,3.271
		c-0.47,1.224-0.828,2.455-1.072,3.695c-0.245,1.241-0.404,2.446-0.479,3.611C176.042,75.016,176.004,76.013,176.004,76.84z"/>
	<path fill="#535353" d="M227.905,103.355c-3.534,0-6.629-0.641-9.28-1.919c-2.65-1.276-4.859-2.997-6.629-5.162
		c-1.768-2.162-3.093-4.661-3.977-7.503c-0.884-2.84-1.326-5.817-1.326-8.941c0-2.105,0.207-4.334,0.621-6.685
		s1.044-4.654,1.891-6.911c0.846-2.256,1.908-4.409,3.187-6.459s2.774-3.855,4.485-5.416c1.711-1.562,3.629-2.801,5.754-3.724
		c2.125-0.922,4.484-1.382,7.08-1.382c2.105,0,4.062,0.338,5.867,1.016c1.805,0.677,3.375,1.627,4.711,2.849
		c1.334,1.223,2.379,2.7,3.131,4.428c0.752,1.73,1.127,3.667,1.127,5.812c0,2.333-0.572,4.664-1.719,6.996
		c-1.147,2.333-2.736,4.532-4.769,6.6c-2.031,2.069-4.447,3.912-7.249,5.528c-2.803,1.617-5.839,2.877-9.109,3.778
		c0.562,1.018,1.117,1.862,1.663,2.539c0.546,0.678,1.101,1.206,1.663,1.58c0.564,0.376,1.157,0.642,1.777,0.789
		c0.621,0.15,1.287,0.228,2.003,0.228c2.257,0,4.636-0.452,7.137-1.354c2.501-0.901,4.937-2.03,7.306-3.385s4.607-2.828,6.713-4.428
		c2.106-1.6,3.894-3.112,5.359-4.542l7.277,7.56c-3.311,3.422-6.826,6.451-10.549,9.083c-1.617,1.128-3.357,2.237-5.219,3.328
		c-1.861,1.092-3.817,2.06-5.867,2.904c-2.051,0.847-4.176,1.522-6.375,2.031C232.391,103.1,230.162,103.355,227.905,103.355z
		 M220.402,76.84c1.354,0,2.83-0.347,4.428-1.044c1.6-0.695,3.084-1.588,4.459-2.679c1.371-1.091,2.527-2.276,3.469-3.554
		c0.94-1.278,1.41-2.52,1.41-3.725c0-1.691-0.312-3.083-0.932-4.175c-0.621-1.091-1.382-1.636-2.285-1.636
		c-1.617,0-2.998,0.302-4.146,0.902c-1.146,0.602-2.104,1.382-2.877,2.342c-0.771,0.959-1.392,2.05-1.861,3.271
		c-0.471,1.224-0.828,2.455-1.071,3.695c-0.244,1.241-0.404,2.446-0.479,3.611C220.44,75.016,220.402,76.013,220.402,76.84z"/>
	<path fill="#535353" d="M253.234,91.564c0-2.482,0.15-5.351,0.452-8.604c0.301-3.252,0.677-6.562,1.128-9.928
		s0.959-6.609,1.523-9.731c0.563-3.121,1.108-5.792,1.636-8.011c0.414-1.729,1.213-3.178,2.397-4.344
		c1.186-1.165,2.791-1.749,4.823-1.749c2.03,0,3.44,0.621,4.229,1.861s1.187,2.896,1.187,4.964c0,0.563-0.057,1.326-0.171,2.285
		c-0.111,0.959-0.253,2.012-0.422,3.158c-0.169,1.148-0.348,2.333-0.536,3.555s-0.366,2.351-0.536,3.385
		c-0.169,1.035-0.311,1.938-0.423,2.708s-0.17,1.289-0.17,1.551h1.129c0.226-0.414,0.583-1.081,1.071-2.002s1.054-1.982,1.693-3.188
		c0.639-1.203,1.324-2.474,2.059-3.809c0.732-1.334,1.42-2.614,2.06-3.836c0.64-1.221,1.222-2.304,1.748-3.244
		c0.527-0.938,0.923-1.636,1.187-2.087c1.203-2.031,2.576-3.421,4.117-4.174c1.541-0.752,3.252-1.128,5.133-1.128
		s3.377,0.79,4.486,2.369c1.108,1.579,1.663,3.761,1.663,6.544c0,0.414-0.085,1.11-0.254,2.087
		c-0.169,0.979-0.385,2.144-0.647,3.498c-0.264,1.354-0.556,2.84-0.875,4.457s-0.611,3.271-0.875,4.964
		c-0.264,1.692-0.479,3.366-0.647,5.021s-0.255,3.179-0.255,4.568c0,2.334,0.292,4.252,0.875,5.754
		c0.583,1.505,1.494,2.258,2.736,2.258c0.562,0,1.213-0.17,1.945-0.508c0.733-0.339,1.523-0.78,2.369-1.326
		c0.848-0.544,1.711-1.176,2.596-1.891c0.883-0.713,1.758-1.446,2.623-2.199c1.994-1.769,4.08-3.761,6.262-5.979l0.959,12.636
		l-2.82,2.146c-1.541,1.164-3.111,2.332-4.71,3.496c-1.599,1.166-3.263,2.21-4.992,3.132c-1.729,0.924-3.536,1.675-5.416,2.257
		c-1.881,0.584-3.854,0.875-5.924,0.875c-2.067,0-3.808-1.496-5.218-4.485c-1.41-2.99-2.115-7.362-2.115-13.116
		c0-2.257,0.148-4.69,0.451-7.306c0.301-2.614,0.676-5.424,1.128-8.434h-0.902l-14.78,29.335c-0.752,1.543-1.599,2.595-2.539,3.158
		c-0.939,0.564-2.03,0.848-3.271,0.848c-1.541,0-2.783-0.33-3.725-0.987c-0.938-0.657-1.663-1.542-2.172-2.651
		c-0.506-1.107-0.846-2.369-1.015-3.779S253.234,93.069,253.234,91.564z"/>
	<path fill="#535353" d="M303.726,81.692c2.105-1.807,3.816-3.31,5.135-4.515c1.314-1.203,2.443-2.303,3.385-3.3
		c0.938-0.996,1.795-2.003,2.564-3.019c0.771-1.017,1.686-2.219,2.736-3.611c1.053-1.39,2.332-3.093,3.838-5.104
		c1.504-2.012,3.459-4.522,5.865-7.532c0.49-0.677,1.035-1.334,1.637-1.974c0.604-0.641,1.27-1.214,2.002-1.722
		c0.734-0.508,1.543-0.921,2.428-1.241c0.885-0.318,1.869-0.479,2.961-0.479c1.807,0,3.197,0.197,4.176,0.592
		c0.979,0.396,1.689,0.875,2.143,1.439c0.451,0.563,0.715,1.155,0.789,1.776c0.076,0.621,0.113,1.157,0.113,1.607
		c0,0.903-0.357,1.899-1.07,2.991c-0.715,1.091-1.506,2.144-2.369,3.158c-0.865,1.016-1.684,1.946-2.455,2.792
		c-0.77,0.847-1.213,1.478-1.324,1.891c0,1.166,0.084,2.228,0.254,3.187c0.168,0.959,0.395,1.9,0.676,2.821
		c0.283,0.922,0.574,1.899,0.875,2.934c0.301,1.035,0.592,2.229,0.875,3.583c0.281,1.354,0.508,2.915,0.676,4.683
		c0.17,1.77,0.254,3.856,0.254,6.263c1.355-0.902,2.812-1.721,4.373-2.454c1.562-0.732,3.188-1.495,4.879-2.285
		c1.693-0.79,3.434-1.664,5.221-2.623c1.785-0.959,3.582-2.114,5.387-3.469l0.057,12.637c-2.332,1.806-5.029,3.497-8.096,5.077
		c-3.064,1.579-6.279,2.972-9.646,4.174c-3.365,1.205-6.77,2.153-10.211,2.851c-3.441,0.695-6.703,1.043-9.787,1.043
		c-2.221,0-4.287-0.206-6.205-0.62c-1.92-0.414-3.602-1.062-5.051-1.946c-1.447-0.883-2.623-2.039-3.523-3.47
		c-0.904-1.43-1.449-3.159-1.639-5.19c-0.525,0.113-1.043,0.19-1.55,0.228c-0.509,0.037-1.007,0.056-1.496,0.056
		c-0.601,0-1.165-0.019-1.692-0.056c-0.525-0.036-0.977-0.178-1.354-0.424c-0.375-0.244-0.678-0.64-0.902-1.186
		c-0.227-0.543-0.339-1.326-0.339-2.341c0-0.902,0.226-1.74,0.679-2.511c0.449-0.771,0.978-1.457,1.578-2.06
		c0.604-0.601,1.203-1.129,1.805-1.579C302.974,82.312,303.425,81.955,303.726,81.692z M310.947,88.913
		c0.451,0,0.949,0.281,1.494,0.846c0.547,0.564,1.176,1.186,1.891,1.862c0.713,0.677,1.541,1.297,2.48,1.861
		c0.939,0.562,2.014,0.847,3.217,0.847c1.467,0,2.68-0.245,3.639-0.732c0.959-0.488,1.721-1.138,2.285-1.946
		c0.562-0.811,0.959-1.75,1.186-2.821c0.227-1.072,0.338-2.19,0.338-3.355c0-1.017-0.064-2.051-0.197-3.104
		c-0.131-1.053-0.299-2.059-0.508-3.019c-0.205-0.959-0.434-1.861-0.676-2.708c-0.246-0.848-0.463-1.57-0.648-2.172L310.947,88.913z
		"/>
	<path fill="#535353" d="M383.212,60.028c0.303-1.278,0.836-2.417,1.607-3.413s1.654-1.833,2.65-2.51
		c0.998-0.678,2.041-1.186,3.133-1.523c1.09-0.338,2.125-0.507,3.104-0.507c1.164,0,2.143,0.253,2.934,0.762
		c0.789,0.508,1.186,1.308,1.186,2.397c0,0.339-0.059,0.732-0.17,1.185c-0.227,0.979-0.508,2.313-0.848,4.005
		c-0.338,1.692-0.705,3.611-1.1,5.754c-0.395,2.144-0.799,4.41-1.213,6.798c-0.414,2.389-0.811,4.767-1.186,7.137
		c-0.939,5.565-1.898,11.546-2.877,17.938c1.129-0.639,2.352-1.429,3.666-2.368c1.316-0.938,2.783-2.2,4.4-3.78
		c1.617-1.579,3.422-3.562,5.416-5.951c1.992-2.389,4.23-5.368,6.713-8.942l2.709,12.524c-0.678,1.166-1.553,2.361-2.623,3.582
		c-1.072,1.223-2.258,2.446-3.555,3.667c-1.297,1.223-2.652,2.407-4.062,3.555c-1.41,1.148-2.793,2.229-4.146,3.243
		c-3.197,2.406-6.639,4.739-10.324,6.996c-0.713,4.023-1.561,7.945-2.537,11.762c-0.979,3.816-2.135,7.392-3.469,10.72
		c-1.336,3.328-2.859,6.382-4.57,9.167c-1.711,2.782-3.646,5.17-5.811,7.164c-2.162,1.994-4.58,3.546-7.25,4.653
		c-2.67,1.108-5.623,1.665-8.857,1.665c-1.277,0-2.66-0.133-4.145-0.395c-1.486-0.265-2.859-0.79-4.119-1.579
		c-1.26-0.791-2.305-1.919-3.131-3.386c-0.828-1.468-1.242-3.424-1.242-5.867c0-1.692,0.434-3.604,1.299-5.728
		s2.049-4.363,3.555-6.712c1.504-2.351,3.289-4.796,5.359-7.335c2.066-2.538,4.312-5.069,6.74-7.587
		c2.426-2.521,4.965-5.002,7.615-7.447c2.65-2.444,5.332-4.774,8.039-6.995l1.523-5.245c-2.031,1.805-4.146,3.264-6.348,4.37
		c-2.199,1.109-4.334,1.665-6.402,1.665c-1.807,0-3.564-0.366-5.275-1.1c-1.711-0.734-3.225-1.786-4.541-3.159
		c-1.314-1.373-2.367-3.047-3.158-5.021c-0.789-1.976-1.186-4.202-1.186-6.686c0-3.271,0.16-6.28,0.48-9.026
		c0.318-2.745,0.779-5.359,1.383-7.842c0.602-2.481,1.354-4.88,2.256-7.192s1.936-4.654,3.104-7.023
		c0.865-1.692,2.105-2.98,3.723-3.865c1.619-0.882,3.197-1.324,4.74-1.324c1.314,0,2.443,0.33,3.385,0.986
		c0.939,0.658,1.41,1.685,1.41,3.074c0,0.414-0.047,0.866-0.143,1.354c-0.094,0.488-0.254,1.016-0.479,1.579
		c-0.678,1.73-1.346,3.771-2.002,6.12c-0.66,2.352-1.242,4.76-1.75,7.222c-0.51,2.464-0.912,4.88-1.213,7.25
		c-0.303,2.369-0.451,4.457-0.451,6.262c0,0.94,0.064,1.854,0.195,2.735c0.133,0.884,0.367,1.674,0.705,2.37
		c0.342,0.696,0.791,1.262,1.355,1.69c0.564,0.435,1.279,0.649,2.145,0.649c1.393,0,2.65-0.602,3.779-1.806
		c1.127-1.203,2.107-2.651,2.934-4.345c0.828-1.693,1.494-3.439,2.004-5.246c0.508-1.806,0.836-3.309,0.986-4.513L383.212,60.028z
		 M356.812,144.875c1.578,0,3.074-0.46,4.484-1.382c1.41-0.923,2.707-2.136,3.893-3.638c1.186-1.506,2.268-3.217,3.244-5.135
		c0.979-1.918,1.844-3.885,2.596-5.896c0.752-2.011,1.391-3.977,1.918-5.895c0.525-1.92,0.939-3.632,1.24-5.135
		c-1.467,0.979-2.961,2.146-4.484,3.498c-1.523,1.354-3.008,2.812-4.457,4.371c-1.447,1.561-2.82,3.168-4.119,4.824
		c-1.297,1.654-2.434,3.244-3.412,4.767c-0.979,1.523-1.748,2.942-2.312,4.26c-0.564,1.315-0.848,2.404-0.848,3.271
		C354.554,144.177,355.306,144.875,356.812,144.875z"/>
</g>
</svg>
